<mxfile host="app.diagrams.net" agent="Mozilla/5.0 (Windows NT 10.0; Win64; x64) AppleWebKit/537.36 (KHTML, like Gecko) Chrome/134.0.0.0 Safari/537.36" version="26.1.0">
  <diagram name="Página-1" id="Bw-3vuzHvK8cUdGuyqDx">
    <mxGraphModel dx="14224" dy="4100" grid="1" gridSize="10" guides="1" tooltips="1" connect="1" arrows="1" fold="1" page="1" pageScale="1" pageWidth="583" pageHeight="827" background="none" math="0" shadow="1">
      <root>
        <mxCell id="0" />
        <mxCell id="1" parent="0" />
        <mxCell id="IaOOJrMQZ6kJ5tzoCsom-21" style="edgeStyle=orthogonalEdgeStyle;rounded=0;orthogonalLoop=1;jettySize=auto;html=1;entryX=0;entryY=0.5;entryDx=0;entryDy=0;" edge="1" parent="1" source="K4KaZRYsGJci2ASywOAP-2" target="IaOOJrMQZ6kJ5tzoCsom-2">
          <mxGeometry relative="1" as="geometry" />
        </mxCell>
        <mxCell id="K4KaZRYsGJci2ASywOAP-2" value="Empreendedor&lt;div&gt;&lt;br&gt;&lt;/div&gt;" style="shape=umlActor;verticalLabelPosition=bottom;verticalAlign=top;html=1;outlineConnect=0;labelBackgroundColor=none;" parent="1" vertex="1">
          <mxGeometry x="-1050" y="4305" width="30" height="60" as="geometry" />
        </mxCell>
        <mxCell id="IaOOJrMQZ6kJ5tzoCsom-5" style="edgeStyle=orthogonalEdgeStyle;rounded=0;orthogonalLoop=1;jettySize=auto;html=1;entryX=0.5;entryY=1;entryDx=0;entryDy=0;dashed=1;" edge="1" parent="1" source="K4KaZRYsGJci2ASywOAP-3" target="IaOOJrMQZ6kJ5tzoCsom-7">
          <mxGeometry relative="1" as="geometry" />
        </mxCell>
        <mxCell id="IaOOJrMQZ6kJ5tzoCsom-14" style="edgeStyle=orthogonalEdgeStyle;rounded=0;orthogonalLoop=1;jettySize=auto;html=1;exitX=1;exitY=0;exitDx=0;exitDy=0;entryX=0;entryY=1;entryDx=0;entryDy=0;dashed=1;" edge="1" parent="1" source="K4KaZRYsGJci2ASywOAP-3" target="IaOOJrMQZ6kJ5tzoCsom-13">
          <mxGeometry relative="1" as="geometry" />
        </mxCell>
        <mxCell id="K4KaZRYsGJci2ASywOAP-3" value="Cadastro de login" style="ellipse;whiteSpace=wrap;html=1;labelBackgroundColor=none;" parent="1" vertex="1">
          <mxGeometry x="-790" y="4250" width="90" height="70" as="geometry" />
        </mxCell>
        <mxCell id="K4KaZRYsGJci2ASywOAP-4" value="SGBD" style="shape=umlActor;verticalLabelPosition=bottom;verticalAlign=top;html=1;outlineConnect=0;labelBackgroundColor=none;" parent="1" vertex="1">
          <mxGeometry x="-550" y="4305" width="30" height="60" as="geometry" />
        </mxCell>
        <mxCell id="IaOOJrMQZ6kJ5tzoCsom-4" value="" style="edgeStyle=orthogonalEdgeStyle;rounded=0;orthogonalLoop=1;jettySize=auto;html=1;" edge="1" parent="1" source="IaOOJrMQZ6kJ5tzoCsom-2" target="K4KaZRYsGJci2ASywOAP-3">
          <mxGeometry relative="1" as="geometry" />
        </mxCell>
        <mxCell id="IaOOJrMQZ6kJ5tzoCsom-11" style="edgeStyle=orthogonalEdgeStyle;rounded=0;orthogonalLoop=1;jettySize=auto;html=1;entryX=0;entryY=0.5;entryDx=0;entryDy=0;" edge="1" parent="1" source="IaOOJrMQZ6kJ5tzoCsom-2" target="IaOOJrMQZ6kJ5tzoCsom-10">
          <mxGeometry relative="1" as="geometry" />
        </mxCell>
        <mxCell id="IaOOJrMQZ6kJ5tzoCsom-2" value="Login" style="ellipse;whiteSpace=wrap;html=1;labelBackgroundColor=none;" vertex="1" parent="1">
          <mxGeometry x="-930" y="4300" width="90" height="70" as="geometry" />
        </mxCell>
        <mxCell id="IaOOJrMQZ6kJ5tzoCsom-9" style="edgeStyle=orthogonalEdgeStyle;rounded=0;orthogonalLoop=1;jettySize=auto;html=1;" edge="1" parent="1" source="IaOOJrMQZ6kJ5tzoCsom-7" target="K4KaZRYsGJci2ASywOAP-4">
          <mxGeometry relative="1" as="geometry" />
        </mxCell>
        <mxCell id="IaOOJrMQZ6kJ5tzoCsom-7" value="Verificação de login" style="ellipse;whiteSpace=wrap;html=1;" vertex="1" parent="1">
          <mxGeometry x="-790" y="4110" width="90" height="70" as="geometry" />
        </mxCell>
        <mxCell id="IaOOJrMQZ6kJ5tzoCsom-8" style="edgeStyle=orthogonalEdgeStyle;rounded=0;orthogonalLoop=1;jettySize=auto;html=1;entryX=0.5;entryY=0;entryDx=0;entryDy=0;" edge="1" parent="1" source="IaOOJrMQZ6kJ5tzoCsom-7" target="IaOOJrMQZ6kJ5tzoCsom-2">
          <mxGeometry relative="1" as="geometry">
            <mxPoint x="-877" y="4303" as="targetPoint" />
          </mxGeometry>
        </mxCell>
        <mxCell id="IaOOJrMQZ6kJ5tzoCsom-10" value="Recuperação de senha" style="ellipse;whiteSpace=wrap;html=1;" vertex="1" parent="1">
          <mxGeometry x="-790" y="4340" width="90" height="70" as="geometry" />
        </mxCell>
        <mxCell id="IaOOJrMQZ6kJ5tzoCsom-18" style="edgeStyle=orthogonalEdgeStyle;rounded=0;orthogonalLoop=1;jettySize=auto;html=1;entryX=0;entryY=0.5;entryDx=0;entryDy=0;" edge="1" parent="1" source="IaOOJrMQZ6kJ5tzoCsom-12" target="IaOOJrMQZ6kJ5tzoCsom-17">
          <mxGeometry relative="1" as="geometry" />
        </mxCell>
        <mxCell id="IaOOJrMQZ6kJ5tzoCsom-12" value="Configurações" style="ellipse;whiteSpace=wrap;html=1;" vertex="1" parent="1">
          <mxGeometry x="-860" y="4460" width="90" height="70" as="geometry" />
        </mxCell>
        <mxCell id="IaOOJrMQZ6kJ5tzoCsom-13" value="Criação da pergunta de segurança" style="ellipse;whiteSpace=wrap;html=1;" vertex="1" parent="1">
          <mxGeometry x="-680" y="4170" width="90" height="70" as="geometry" />
        </mxCell>
        <mxCell id="IaOOJrMQZ6kJ5tzoCsom-15" style="edgeStyle=orthogonalEdgeStyle;rounded=0;orthogonalLoop=1;jettySize=auto;html=1;exitX=1;exitY=0.5;exitDx=0;exitDy=0;entryX=0.5;entryY=0;entryDx=0;entryDy=0;entryPerimeter=0;" edge="1" parent="1" source="IaOOJrMQZ6kJ5tzoCsom-13" target="K4KaZRYsGJci2ASywOAP-4">
          <mxGeometry relative="1" as="geometry" />
        </mxCell>
        <mxCell id="IaOOJrMQZ6kJ5tzoCsom-16" style="edgeStyle=orthogonalEdgeStyle;rounded=0;orthogonalLoop=1;jettySize=auto;html=1;entryX=-0.011;entryY=0.604;entryDx=0;entryDy=0;entryPerimeter=0;" edge="1" parent="1" source="IaOOJrMQZ6kJ5tzoCsom-2" target="IaOOJrMQZ6kJ5tzoCsom-12">
          <mxGeometry relative="1" as="geometry" />
        </mxCell>
        <mxCell id="IaOOJrMQZ6kJ5tzoCsom-19" style="edgeStyle=orthogonalEdgeStyle;rounded=0;orthogonalLoop=1;jettySize=auto;html=1;" edge="1" parent="1" source="IaOOJrMQZ6kJ5tzoCsom-17" target="K4KaZRYsGJci2ASywOAP-4">
          <mxGeometry relative="1" as="geometry" />
        </mxCell>
        <mxCell id="IaOOJrMQZ6kJ5tzoCsom-17" value="Redefinir senha" style="ellipse;whiteSpace=wrap;html=1;" vertex="1" parent="1">
          <mxGeometry x="-730" y="4450" width="90" height="70" as="geometry" />
        </mxCell>
        <mxCell id="IaOOJrMQZ6kJ5tzoCsom-24" style="edgeStyle=orthogonalEdgeStyle;rounded=0;orthogonalLoop=1;jettySize=auto;html=1;entryX=0;entryY=0.5;entryDx=0;entryDy=0;" edge="1" parent="1" source="IaOOJrMQZ6kJ5tzoCsom-22" target="IaOOJrMQZ6kJ5tzoCsom-23">
          <mxGeometry relative="1" as="geometry" />
        </mxCell>
        <mxCell id="IaOOJrMQZ6kJ5tzoCsom-22" value="&lt;div&gt;Administrador&lt;/div&gt;" style="shape=umlActor;verticalLabelPosition=bottom;verticalAlign=top;html=1;outlineConnect=0;labelBackgroundColor=none;" vertex="1" parent="1">
          <mxGeometry x="-1120" y="4880" width="30" height="60" as="geometry" />
        </mxCell>
        <mxCell id="IaOOJrMQZ6kJ5tzoCsom-26" value="" style="edgeStyle=orthogonalEdgeStyle;rounded=0;orthogonalLoop=1;jettySize=auto;html=1;" edge="1" parent="1" source="IaOOJrMQZ6kJ5tzoCsom-23" target="IaOOJrMQZ6kJ5tzoCsom-25">
          <mxGeometry relative="1" as="geometry" />
        </mxCell>
        <mxCell id="IaOOJrMQZ6kJ5tzoCsom-23" value="Login" style="ellipse;whiteSpace=wrap;html=1;labelBackgroundColor=none;" vertex="1" parent="1">
          <mxGeometry x="-1000" y="4875" width="90" height="70" as="geometry" />
        </mxCell>
        <mxCell id="IaOOJrMQZ6kJ5tzoCsom-31" value="" style="edgeStyle=orthogonalEdgeStyle;rounded=0;orthogonalLoop=1;jettySize=auto;html=1;" edge="1" parent="1" source="IaOOJrMQZ6kJ5tzoCsom-25" target="IaOOJrMQZ6kJ5tzoCsom-28">
          <mxGeometry relative="1" as="geometry" />
        </mxCell>
        <mxCell id="IaOOJrMQZ6kJ5tzoCsom-32" value="" style="edgeStyle=orthogonalEdgeStyle;rounded=0;orthogonalLoop=1;jettySize=auto;html=1;" edge="1" parent="1" source="IaOOJrMQZ6kJ5tzoCsom-25" target="IaOOJrMQZ6kJ5tzoCsom-27">
          <mxGeometry relative="1" as="geometry" />
        </mxCell>
        <mxCell id="IaOOJrMQZ6kJ5tzoCsom-33" value="" style="edgeStyle=orthogonalEdgeStyle;rounded=0;orthogonalLoop=1;jettySize=auto;html=1;entryX=0;entryY=0.5;entryDx=0;entryDy=0;" edge="1" parent="1" source="IaOOJrMQZ6kJ5tzoCsom-25" target="IaOOJrMQZ6kJ5tzoCsom-30">
          <mxGeometry relative="1" as="geometry" />
        </mxCell>
        <mxCell id="IaOOJrMQZ6kJ5tzoCsom-34" value="" style="edgeStyle=orthogonalEdgeStyle;rounded=0;orthogonalLoop=1;jettySize=auto;html=1;" edge="1" parent="1" source="IaOOJrMQZ6kJ5tzoCsom-25" target="IaOOJrMQZ6kJ5tzoCsom-29">
          <mxGeometry relative="1" as="geometry" />
        </mxCell>
        <mxCell id="IaOOJrMQZ6kJ5tzoCsom-25" value="Gestão do sistema" style="ellipse;whiteSpace=wrap;html=1;labelBackgroundColor=none;" vertex="1" parent="1">
          <mxGeometry x="-880" y="4875" width="90" height="70" as="geometry" />
        </mxCell>
        <mxCell id="IaOOJrMQZ6kJ5tzoCsom-36" value="" style="edgeStyle=orthogonalEdgeStyle;rounded=0;orthogonalLoop=1;jettySize=auto;html=1;exitX=0.5;exitY=0;exitDx=0;exitDy=0;" edge="1" parent="1" source="IaOOJrMQZ6kJ5tzoCsom-27" target="IaOOJrMQZ6kJ5tzoCsom-35">
          <mxGeometry relative="1" as="geometry" />
        </mxCell>
        <mxCell id="IaOOJrMQZ6kJ5tzoCsom-38" style="edgeStyle=orthogonalEdgeStyle;rounded=0;orthogonalLoop=1;jettySize=auto;html=1;exitX=1;exitY=0.5;exitDx=0;exitDy=0;entryX=0;entryY=0.5;entryDx=0;entryDy=0;" edge="1" parent="1" source="IaOOJrMQZ6kJ5tzoCsom-27" target="IaOOJrMQZ6kJ5tzoCsom-37">
          <mxGeometry relative="1" as="geometry" />
        </mxCell>
        <mxCell id="IaOOJrMQZ6kJ5tzoCsom-27" value="Gerenciar contas cadastradas" style="ellipse;whiteSpace=wrap;html=1;labelBackgroundColor=none;" vertex="1" parent="1">
          <mxGeometry x="-970" y="4700" width="90" height="70" as="geometry" />
        </mxCell>
        <mxCell id="IaOOJrMQZ6kJ5tzoCsom-42" style="edgeStyle=orthogonalEdgeStyle;rounded=0;orthogonalLoop=1;jettySize=auto;html=1;exitX=1;exitY=0.5;exitDx=0;exitDy=0;entryX=0;entryY=0.5;entryDx=0;entryDy=0;" edge="1" parent="1" source="IaOOJrMQZ6kJ5tzoCsom-28" target="IaOOJrMQZ6kJ5tzoCsom-39">
          <mxGeometry relative="1" as="geometry" />
        </mxCell>
        <mxCell id="IaOOJrMQZ6kJ5tzoCsom-43" style="edgeStyle=orthogonalEdgeStyle;rounded=0;orthogonalLoop=1;jettySize=auto;html=1;exitX=1;exitY=0.5;exitDx=0;exitDy=0;" edge="1" parent="1" source="IaOOJrMQZ6kJ5tzoCsom-28" target="IaOOJrMQZ6kJ5tzoCsom-40">
          <mxGeometry relative="1" as="geometry" />
        </mxCell>
        <mxCell id="IaOOJrMQZ6kJ5tzoCsom-44" style="edgeStyle=orthogonalEdgeStyle;rounded=0;orthogonalLoop=1;jettySize=auto;html=1;exitX=1;exitY=0.5;exitDx=0;exitDy=0;entryX=0;entryY=0.5;entryDx=0;entryDy=0;" edge="1" parent="1" source="IaOOJrMQZ6kJ5tzoCsom-28" target="IaOOJrMQZ6kJ5tzoCsom-41">
          <mxGeometry relative="1" as="geometry" />
        </mxCell>
        <mxCell id="IaOOJrMQZ6kJ5tzoCsom-28" value="Gerenciar as lincenças de acesso" style="ellipse;whiteSpace=wrap;html=1;labelBackgroundColor=none;" vertex="1" parent="1">
          <mxGeometry x="-770" y="4805" width="90" height="70" as="geometry" />
        </mxCell>
        <mxCell id="IaOOJrMQZ6kJ5tzoCsom-29" value="Gerenciar cotas de utilização" style="ellipse;whiteSpace=wrap;html=1;labelBackgroundColor=none;" vertex="1" parent="1">
          <mxGeometry x="-970" y="5050" width="90" height="70" as="geometry" />
        </mxCell>
        <mxCell id="IaOOJrMQZ6kJ5tzoCsom-48" style="edgeStyle=orthogonalEdgeStyle;rounded=0;orthogonalLoop=1;jettySize=auto;html=1;exitX=1;exitY=0.5;exitDx=0;exitDy=0;entryX=0;entryY=0.5;entryDx=0;entryDy=0;" edge="1" parent="1" source="IaOOJrMQZ6kJ5tzoCsom-30" target="IaOOJrMQZ6kJ5tzoCsom-47">
          <mxGeometry relative="1" as="geometry" />
        </mxCell>
        <mxCell id="IaOOJrMQZ6kJ5tzoCsom-49" style="edgeStyle=orthogonalEdgeStyle;rounded=0;orthogonalLoop=1;jettySize=auto;html=1;exitX=1;exitY=0.5;exitDx=0;exitDy=0;entryX=0;entryY=0.5;entryDx=0;entryDy=0;" edge="1" parent="1" source="IaOOJrMQZ6kJ5tzoCsom-30" target="IaOOJrMQZ6kJ5tzoCsom-46">
          <mxGeometry relative="1" as="geometry" />
        </mxCell>
        <mxCell id="IaOOJrMQZ6kJ5tzoCsom-30" value="Gerenciar o propria perfil" style="ellipse;whiteSpace=wrap;html=1;labelBackgroundColor=none;" vertex="1" parent="1">
          <mxGeometry x="-770" y="4945" width="90" height="70" as="geometry" />
        </mxCell>
        <mxCell id="IaOOJrMQZ6kJ5tzoCsom-35" value="Listagem de contas cadastradas" style="ellipse;whiteSpace=wrap;html=1;labelBackgroundColor=none;" vertex="1" parent="1">
          <mxGeometry x="-790" y="4590" width="90" height="70" as="geometry" />
        </mxCell>
        <mxCell id="IaOOJrMQZ6kJ5tzoCsom-37" value="Redifinição de senhas" style="ellipse;whiteSpace=wrap;html=1;labelBackgroundColor=none;" vertex="1" parent="1">
          <mxGeometry x="-790" y="4700" width="90" height="70" as="geometry" />
        </mxCell>
        <mxCell id="IaOOJrMQZ6kJ5tzoCsom-39" value="Conceder licenças" style="ellipse;whiteSpace=wrap;html=1;labelBackgroundColor=none;" vertex="1" parent="1">
          <mxGeometry x="-603" y="4715" width="90" height="70" as="geometry" />
        </mxCell>
        <mxCell id="IaOOJrMQZ6kJ5tzoCsom-40" value="Revogar Licenças" style="ellipse;whiteSpace=wrap;html=1;labelBackgroundColor=none;" vertex="1" parent="1">
          <mxGeometry x="-603" y="4805" width="90" height="70" as="geometry" />
        </mxCell>
        <mxCell id="IaOOJrMQZ6kJ5tzoCsom-41" value="Prolongar licenças" style="ellipse;whiteSpace=wrap;html=1;labelBackgroundColor=none;" vertex="1" parent="1">
          <mxGeometry x="-603" y="4895" width="90" height="70" as="geometry" />
        </mxCell>
        <mxCell id="IaOOJrMQZ6kJ5tzoCsom-58" style="edgeStyle=orthogonalEdgeStyle;rounded=0;orthogonalLoop=1;jettySize=auto;html=1;exitX=1;exitY=0.5;exitDx=0;exitDy=0;" edge="1" parent="1" source="IaOOJrMQZ6kJ5tzoCsom-46">
          <mxGeometry relative="1" as="geometry">
            <mxPoint x="-350" y="4940" as="targetPoint" />
          </mxGeometry>
        </mxCell>
        <mxCell id="IaOOJrMQZ6kJ5tzoCsom-46" value="Alterar senha" style="ellipse;whiteSpace=wrap;html=1;labelBackgroundColor=none;" vertex="1" parent="1">
          <mxGeometry x="-610" y="5080" width="90" height="70" as="geometry" />
        </mxCell>
        <mxCell id="IaOOJrMQZ6kJ5tzoCsom-47" value="Alterar email" style="ellipse;whiteSpace=wrap;html=1;labelBackgroundColor=none;" vertex="1" parent="1">
          <mxGeometry x="-610" y="4990" width="90" height="70" as="geometry" />
        </mxCell>
        <mxCell id="IaOOJrMQZ6kJ5tzoCsom-74" style="edgeStyle=orthogonalEdgeStyle;rounded=0;orthogonalLoop=1;jettySize=auto;html=1;entryX=0;entryY=0.5;entryDx=0;entryDy=0;" edge="1" parent="1" source="IaOOJrMQZ6kJ5tzoCsom-50" target="IaOOJrMQZ6kJ5tzoCsom-64">
          <mxGeometry relative="1" as="geometry" />
        </mxCell>
        <mxCell id="IaOOJrMQZ6kJ5tzoCsom-75" style="edgeStyle=orthogonalEdgeStyle;rounded=0;orthogonalLoop=1;jettySize=auto;html=1;exitX=0.5;exitY=0.5;exitDx=0;exitDy=0;exitPerimeter=0;entryX=0;entryY=0.5;entryDx=0;entryDy=0;" edge="1" parent="1" source="IaOOJrMQZ6kJ5tzoCsom-50" target="IaOOJrMQZ6kJ5tzoCsom-65">
          <mxGeometry relative="1" as="geometry" />
        </mxCell>
        <mxCell id="IaOOJrMQZ6kJ5tzoCsom-50" value="Sistema" style="shape=umlActor;verticalLabelPosition=bottom;verticalAlign=top;html=1;outlineConnect=0;labelBackgroundColor=none;" vertex="1" parent="1">
          <mxGeometry x="-1120" y="5815" width="30" height="60" as="geometry" />
        </mxCell>
        <mxCell id="IaOOJrMQZ6kJ5tzoCsom-52" style="edgeStyle=orthogonalEdgeStyle;rounded=0;orthogonalLoop=1;jettySize=auto;html=1;exitX=0.5;exitY=0;exitDx=0;exitDy=0;exitPerimeter=0;entryX=1;entryY=0.5;entryDx=0;entryDy=0;" edge="1" parent="1" source="IaOOJrMQZ6kJ5tzoCsom-51" target="IaOOJrMQZ6kJ5tzoCsom-35">
          <mxGeometry relative="1" as="geometry" />
        </mxCell>
        <mxCell id="IaOOJrMQZ6kJ5tzoCsom-51" value="SGBD" style="shape=umlActor;verticalLabelPosition=bottom;verticalAlign=top;html=1;outlineConnect=0;labelBackgroundColor=none;" vertex="1" parent="1">
          <mxGeometry x="-350" y="4880" width="30" height="60" as="geometry" />
        </mxCell>
        <mxCell id="IaOOJrMQZ6kJ5tzoCsom-54" style="edgeStyle=orthogonalEdgeStyle;rounded=0;orthogonalLoop=1;jettySize=auto;html=1;exitX=1;exitY=0.5;exitDx=0;exitDy=0;" edge="1" parent="1" source="IaOOJrMQZ6kJ5tzoCsom-39">
          <mxGeometry relative="1" as="geometry">
            <mxPoint x="-335" y="4880" as="targetPoint" />
          </mxGeometry>
        </mxCell>
        <mxCell id="IaOOJrMQZ6kJ5tzoCsom-55" style="edgeStyle=orthogonalEdgeStyle;rounded=0;orthogonalLoop=1;jettySize=auto;html=1;exitX=1;exitY=0.5;exitDx=0;exitDy=0;entryX=0.5;entryY=0;entryDx=0;entryDy=0;entryPerimeter=0;" edge="1" parent="1" source="IaOOJrMQZ6kJ5tzoCsom-40" target="IaOOJrMQZ6kJ5tzoCsom-51">
          <mxGeometry relative="1" as="geometry" />
        </mxCell>
        <mxCell id="IaOOJrMQZ6kJ5tzoCsom-56" style="edgeStyle=orthogonalEdgeStyle;rounded=0;orthogonalLoop=1;jettySize=auto;html=1;exitX=1;exitY=0.5;exitDx=0;exitDy=0;entryX=0;entryY=0.3333333333333333;entryDx=0;entryDy=0;entryPerimeter=0;" edge="1" parent="1" source="IaOOJrMQZ6kJ5tzoCsom-41" target="IaOOJrMQZ6kJ5tzoCsom-51">
          <mxGeometry relative="1" as="geometry" />
        </mxCell>
        <mxCell id="IaOOJrMQZ6kJ5tzoCsom-57" style="edgeStyle=orthogonalEdgeStyle;rounded=0;orthogonalLoop=1;jettySize=auto;html=1;exitX=1;exitY=0.5;exitDx=0;exitDy=0;entryX=0;entryY=1;entryDx=0;entryDy=0;entryPerimeter=0;" edge="1" parent="1" source="IaOOJrMQZ6kJ5tzoCsom-47" target="IaOOJrMQZ6kJ5tzoCsom-51">
          <mxGeometry relative="1" as="geometry" />
        </mxCell>
        <mxCell id="IaOOJrMQZ6kJ5tzoCsom-100" style="edgeStyle=orthogonalEdgeStyle;rounded=0;orthogonalLoop=1;jettySize=auto;html=1;entryX=0.5;entryY=0;entryDx=0;entryDy=0;" edge="1" parent="1" source="IaOOJrMQZ6kJ5tzoCsom-59" target="IaOOJrMQZ6kJ5tzoCsom-97">
          <mxGeometry relative="1" as="geometry" />
        </mxCell>
        <mxCell id="IaOOJrMQZ6kJ5tzoCsom-105" style="edgeStyle=orthogonalEdgeStyle;rounded=0;orthogonalLoop=1;jettySize=auto;html=1;entryX=0.5;entryY=0;entryDx=0;entryDy=0;" edge="1" parent="1" source="IaOOJrMQZ6kJ5tzoCsom-59" target="IaOOJrMQZ6kJ5tzoCsom-104">
          <mxGeometry relative="1" as="geometry" />
        </mxCell>
        <mxCell id="IaOOJrMQZ6kJ5tzoCsom-59" value="Empreendedor&lt;div&gt;basico&lt;/div&gt;" style="shape=umlActor;verticalLabelPosition=bottom;verticalAlign=top;html=1;outlineConnect=0;labelBackgroundColor=none;" vertex="1" parent="1">
          <mxGeometry x="-809" y="5230" width="30" height="60" as="geometry" />
        </mxCell>
        <mxCell id="IaOOJrMQZ6kJ5tzoCsom-60" value="Empreendedor&lt;div&gt;profissional&lt;/div&gt;" style="shape=umlActor;verticalLabelPosition=bottom;verticalAlign=top;html=1;outlineConnect=0;labelBackgroundColor=none;" vertex="1" parent="1">
          <mxGeometry x="-1096" y="1130" width="30" height="60" as="geometry" />
        </mxCell>
        <mxCell id="IaOOJrMQZ6kJ5tzoCsom-253" style="edgeStyle=orthogonalEdgeStyle;rounded=0;orthogonalLoop=1;jettySize=auto;html=1;exitX=0.5;exitY=0.5;exitDx=0;exitDy=0;exitPerimeter=0;entryX=0;entryY=0.5;entryDx=0;entryDy=0;" edge="1" parent="1" source="IaOOJrMQZ6kJ5tzoCsom-61" target="IaOOJrMQZ6kJ5tzoCsom-144">
          <mxGeometry relative="1" as="geometry" />
        </mxCell>
        <mxCell id="IaOOJrMQZ6kJ5tzoCsom-61" value="Empreendedor/Utilizador" style="shape=umlActor;verticalLabelPosition=bottom;verticalAlign=top;html=1;outlineConnect=0;labelBackgroundColor=none;" vertex="1" parent="1">
          <mxGeometry x="-1100" y="2765" width="30" height="60" as="geometry" />
        </mxCell>
        <mxCell id="IaOOJrMQZ6kJ5tzoCsom-70" style="edgeStyle=orthogonalEdgeStyle;rounded=0;orthogonalLoop=1;jettySize=auto;html=1;entryX=0;entryY=0.5;entryDx=0;entryDy=0;" edge="1" parent="1" source="IaOOJrMQZ6kJ5tzoCsom-64" target="IaOOJrMQZ6kJ5tzoCsom-66">
          <mxGeometry relative="1" as="geometry" />
        </mxCell>
        <mxCell id="IaOOJrMQZ6kJ5tzoCsom-71" style="edgeStyle=orthogonalEdgeStyle;rounded=0;orthogonalLoop=1;jettySize=auto;html=1;exitX=1;exitY=0.5;exitDx=0;exitDy=0;" edge="1" parent="1" source="IaOOJrMQZ6kJ5tzoCsom-64" target="IaOOJrMQZ6kJ5tzoCsom-67">
          <mxGeometry relative="1" as="geometry" />
        </mxCell>
        <mxCell id="IaOOJrMQZ6kJ5tzoCsom-96" style="edgeStyle=orthogonalEdgeStyle;rounded=0;orthogonalLoop=1;jettySize=auto;html=1;exitX=0.5;exitY=0;exitDx=0;exitDy=0;entryX=0;entryY=0.5;entryDx=0;entryDy=0;dashed=1;" edge="1" parent="1" source="IaOOJrMQZ6kJ5tzoCsom-64" target="IaOOJrMQZ6kJ5tzoCsom-95">
          <mxGeometry relative="1" as="geometry" />
        </mxCell>
        <mxCell id="IaOOJrMQZ6kJ5tzoCsom-110" value="Realiza" style="edgeLabel;html=1;align=center;verticalAlign=middle;resizable=0;points=[];" vertex="1" connectable="0" parent="IaOOJrMQZ6kJ5tzoCsom-96">
          <mxGeometry x="-0.0251" y="4" relative="1" as="geometry">
            <mxPoint as="offset" />
          </mxGeometry>
        </mxCell>
        <mxCell id="IaOOJrMQZ6kJ5tzoCsom-121" style="edgeStyle=orthogonalEdgeStyle;rounded=0;orthogonalLoop=1;jettySize=auto;html=1;entryX=0.5;entryY=0;entryDx=0;entryDy=0;dashed=1;" edge="1" parent="1" source="IaOOJrMQZ6kJ5tzoCsom-64" target="IaOOJrMQZ6kJ5tzoCsom-120">
          <mxGeometry relative="1" as="geometry" />
        </mxCell>
        <mxCell id="IaOOJrMQZ6kJ5tzoCsom-123" value="Realiza" style="edgeLabel;html=1;align=center;verticalAlign=middle;resizable=0;points=[];" vertex="1" connectable="0" parent="IaOOJrMQZ6kJ5tzoCsom-121">
          <mxGeometry x="-0.2823" relative="1" as="geometry">
            <mxPoint as="offset" />
          </mxGeometry>
        </mxCell>
        <mxCell id="IaOOJrMQZ6kJ5tzoCsom-64" value="Licença basica" style="ellipse;whiteSpace=wrap;html=1;labelBackgroundColor=none;" vertex="1" parent="1">
          <mxGeometry x="-980" y="5690" width="90" height="70" as="geometry" />
        </mxCell>
        <mxCell id="IaOOJrMQZ6kJ5tzoCsom-73" style="edgeStyle=orthogonalEdgeStyle;rounded=0;orthogonalLoop=1;jettySize=auto;html=1;exitX=1;exitY=0.5;exitDx=0;exitDy=0;entryX=0;entryY=0.5;entryDx=0;entryDy=0;" edge="1" parent="1" source="IaOOJrMQZ6kJ5tzoCsom-65" target="IaOOJrMQZ6kJ5tzoCsom-69">
          <mxGeometry relative="1" as="geometry" />
        </mxCell>
        <mxCell id="IaOOJrMQZ6kJ5tzoCsom-122" style="edgeStyle=orthogonalEdgeStyle;rounded=0;orthogonalLoop=1;jettySize=auto;html=1;entryX=0.5;entryY=1;entryDx=0;entryDy=0;dashed=1;" edge="1" parent="1" source="IaOOJrMQZ6kJ5tzoCsom-65" target="IaOOJrMQZ6kJ5tzoCsom-119">
          <mxGeometry relative="1" as="geometry" />
        </mxCell>
        <mxCell id="IaOOJrMQZ6kJ5tzoCsom-124" value="Realiza" style="edgeLabel;html=1;align=center;verticalAlign=middle;resizable=0;points=[];" vertex="1" connectable="0" parent="IaOOJrMQZ6kJ5tzoCsom-122">
          <mxGeometry x="-0.3065" relative="1" as="geometry">
            <mxPoint as="offset" />
          </mxGeometry>
        </mxCell>
        <mxCell id="IaOOJrMQZ6kJ5tzoCsom-65" value="Licença Profissional" style="ellipse;whiteSpace=wrap;html=1;labelBackgroundColor=none;" vertex="1" parent="1">
          <mxGeometry x="-980" y="6330" width="90" height="70" as="geometry" />
        </mxCell>
        <mxCell id="IaOOJrMQZ6kJ5tzoCsom-90" style="edgeStyle=orthogonalEdgeStyle;rounded=0;orthogonalLoop=1;jettySize=auto;html=1;exitX=1;exitY=0.5;exitDx=0;exitDy=0;entryX=0;entryY=0.5;entryDx=0;entryDy=0;" edge="1" parent="1" source="IaOOJrMQZ6kJ5tzoCsom-66" target="IaOOJrMQZ6kJ5tzoCsom-89">
          <mxGeometry relative="1" as="geometry" />
        </mxCell>
        <mxCell id="IaOOJrMQZ6kJ5tzoCsom-66" value="&lt;div&gt;Registrar de quantidade de serviços&lt;/div&gt;" style="ellipse;whiteSpace=wrap;html=1;labelBackgroundColor=none;" vertex="1" parent="1">
          <mxGeometry x="-830" y="5620" width="90" height="70" as="geometry" />
        </mxCell>
        <mxCell id="IaOOJrMQZ6kJ5tzoCsom-79" style="edgeStyle=orthogonalEdgeStyle;rounded=0;orthogonalLoop=1;jettySize=auto;html=1;entryX=0;entryY=0.5;entryDx=0;entryDy=0;" edge="1" parent="1" source="IaOOJrMQZ6kJ5tzoCsom-67" target="IaOOJrMQZ6kJ5tzoCsom-78">
          <mxGeometry relative="1" as="geometry" />
        </mxCell>
        <mxCell id="IaOOJrMQZ6kJ5tzoCsom-111" value="Registra" style="edgeLabel;html=1;align=center;verticalAlign=middle;resizable=0;points=[];" vertex="1" connectable="0" parent="IaOOJrMQZ6kJ5tzoCsom-79">
          <mxGeometry x="-0.0333" y="3" relative="1" as="geometry">
            <mxPoint y="1" as="offset" />
          </mxGeometry>
        </mxCell>
        <mxCell id="IaOOJrMQZ6kJ5tzoCsom-80" style="edgeStyle=orthogonalEdgeStyle;rounded=0;orthogonalLoop=1;jettySize=auto;html=1;exitX=1;exitY=0.5;exitDx=0;exitDy=0;entryX=0;entryY=0.5;entryDx=0;entryDy=0;" edge="1" parent="1" source="IaOOJrMQZ6kJ5tzoCsom-67" target="IaOOJrMQZ6kJ5tzoCsom-77">
          <mxGeometry relative="1" as="geometry" />
        </mxCell>
        <mxCell id="IaOOJrMQZ6kJ5tzoCsom-112" value="Registra" style="edgeLabel;html=1;align=center;verticalAlign=middle;resizable=0;points=[];" vertex="1" connectable="0" parent="IaOOJrMQZ6kJ5tzoCsom-80">
          <mxGeometry x="0.0333" y="1" relative="1" as="geometry">
            <mxPoint as="offset" />
          </mxGeometry>
        </mxCell>
        <mxCell id="IaOOJrMQZ6kJ5tzoCsom-67" value="&lt;div&gt;Registrar de quantidade de Relatorios&lt;/div&gt;" style="ellipse;whiteSpace=wrap;html=1;labelBackgroundColor=none;" vertex="1" parent="1">
          <mxGeometry x="-830" y="5760" width="90" height="70" as="geometry" />
        </mxCell>
        <mxCell id="IaOOJrMQZ6kJ5tzoCsom-83" style="edgeStyle=orthogonalEdgeStyle;rounded=0;orthogonalLoop=1;jettySize=auto;html=1;exitX=1;exitY=0.5;exitDx=0;exitDy=0;entryX=0;entryY=0.5;entryDx=0;entryDy=0;" edge="1" parent="1" source="IaOOJrMQZ6kJ5tzoCsom-69" target="IaOOJrMQZ6kJ5tzoCsom-81">
          <mxGeometry relative="1" as="geometry" />
        </mxCell>
        <mxCell id="IaOOJrMQZ6kJ5tzoCsom-113" value="Registra" style="edgeLabel;html=1;align=center;verticalAlign=middle;resizable=0;points=[];" vertex="1" connectable="0" parent="IaOOJrMQZ6kJ5tzoCsom-83">
          <mxGeometry x="0.0562" y="1" relative="1" as="geometry">
            <mxPoint y="1" as="offset" />
          </mxGeometry>
        </mxCell>
        <mxCell id="IaOOJrMQZ6kJ5tzoCsom-84" style="edgeStyle=orthogonalEdgeStyle;rounded=0;orthogonalLoop=1;jettySize=auto;html=1;exitX=1;exitY=0.5;exitDx=0;exitDy=0;" edge="1" parent="1" source="IaOOJrMQZ6kJ5tzoCsom-69" target="IaOOJrMQZ6kJ5tzoCsom-82">
          <mxGeometry relative="1" as="geometry" />
        </mxCell>
        <mxCell id="IaOOJrMQZ6kJ5tzoCsom-114" value="Registra" style="edgeLabel;html=1;align=center;verticalAlign=middle;resizable=0;points=[];" vertex="1" connectable="0" parent="IaOOJrMQZ6kJ5tzoCsom-84">
          <mxGeometry x="0.0787" y="-4" relative="1" as="geometry">
            <mxPoint y="1" as="offset" />
          </mxGeometry>
        </mxCell>
        <mxCell id="IaOOJrMQZ6kJ5tzoCsom-69" value="&lt;div&gt;Registrar de quantidade de Relatorios&lt;/div&gt;" style="ellipse;whiteSpace=wrap;html=1;labelBackgroundColor=none;" vertex="1" parent="1">
          <mxGeometry x="-840" y="6330" width="90" height="70" as="geometry" />
        </mxCell>
        <mxCell id="IaOOJrMQZ6kJ5tzoCsom-76" value="SGBD" style="shape=umlActor;verticalLabelPosition=bottom;verticalAlign=top;html=1;outlineConnect=0;labelBackgroundColor=none;" vertex="1" parent="1">
          <mxGeometry x="-470" y="5828" width="30" height="60" as="geometry" />
        </mxCell>
        <mxCell id="IaOOJrMQZ6kJ5tzoCsom-86" style="edgeStyle=orthogonalEdgeStyle;rounded=0;orthogonalLoop=1;jettySize=auto;html=1;exitX=1;exitY=0.5;exitDx=0;exitDy=0;" edge="1" parent="1" source="IaOOJrMQZ6kJ5tzoCsom-77">
          <mxGeometry relative="1" as="geometry">
            <mxPoint x="-460" y="5839.526315789473" as="targetPoint" />
          </mxGeometry>
        </mxCell>
        <mxCell id="IaOOJrMQZ6kJ5tzoCsom-77" value="Relatorio simples" style="ellipse;whiteSpace=wrap;html=1;labelBackgroundColor=none;" vertex="1" parent="1">
          <mxGeometry x="-680" y="5805" width="90" height="70" as="geometry" />
        </mxCell>
        <mxCell id="IaOOJrMQZ6kJ5tzoCsom-85" style="edgeStyle=orthogonalEdgeStyle;rounded=0;orthogonalLoop=1;jettySize=auto;html=1;exitX=1;exitY=0.5;exitDx=0;exitDy=0;" edge="1" parent="1" source="IaOOJrMQZ6kJ5tzoCsom-78" target="IaOOJrMQZ6kJ5tzoCsom-76">
          <mxGeometry relative="1" as="geometry" />
        </mxCell>
        <mxCell id="IaOOJrMQZ6kJ5tzoCsom-78" value="Relatorio detalhado" style="ellipse;whiteSpace=wrap;html=1;labelBackgroundColor=none;" vertex="1" parent="1">
          <mxGeometry x="-680" y="5715" width="90" height="70" as="geometry" />
        </mxCell>
        <mxCell id="IaOOJrMQZ6kJ5tzoCsom-87" style="edgeStyle=orthogonalEdgeStyle;rounded=0;orthogonalLoop=1;jettySize=auto;html=1;exitX=1;exitY=0.5;exitDx=0;exitDy=0;" edge="1" parent="1" source="IaOOJrMQZ6kJ5tzoCsom-81" target="IaOOJrMQZ6kJ5tzoCsom-76">
          <mxGeometry relative="1" as="geometry" />
        </mxCell>
        <mxCell id="IaOOJrMQZ6kJ5tzoCsom-81" value="Relatorio detalhado" style="ellipse;whiteSpace=wrap;html=1;labelBackgroundColor=none;" vertex="1" parent="1">
          <mxGeometry x="-711" y="6280" width="90" height="70" as="geometry" />
        </mxCell>
        <mxCell id="IaOOJrMQZ6kJ5tzoCsom-88" style="edgeStyle=orthogonalEdgeStyle;rounded=0;orthogonalLoop=1;jettySize=auto;html=1;exitX=1;exitY=0.5;exitDx=0;exitDy=0;" edge="1" parent="1" source="IaOOJrMQZ6kJ5tzoCsom-82" target="IaOOJrMQZ6kJ5tzoCsom-76">
          <mxGeometry relative="1" as="geometry" />
        </mxCell>
        <mxCell id="IaOOJrMQZ6kJ5tzoCsom-82" value="Relatorio simples" style="ellipse;whiteSpace=wrap;html=1;labelBackgroundColor=none;" vertex="1" parent="1">
          <mxGeometry x="-711" y="6380" width="90" height="70" as="geometry" />
        </mxCell>
        <mxCell id="IaOOJrMQZ6kJ5tzoCsom-89" value="Cotas de utilização" style="ellipse;whiteSpace=wrap;html=1;labelBackgroundColor=none;" vertex="1" parent="1">
          <mxGeometry x="-690" y="5620" width="90" height="70" as="geometry" />
        </mxCell>
        <mxCell id="IaOOJrMQZ6kJ5tzoCsom-91" style="edgeStyle=orthogonalEdgeStyle;rounded=0;orthogonalLoop=1;jettySize=auto;html=1;exitX=1;exitY=0.5;exitDx=0;exitDy=0;entryX=0.5;entryY=0.5;entryDx=0;entryDy=0;entryPerimeter=0;" edge="1" parent="1" source="IaOOJrMQZ6kJ5tzoCsom-89" target="IaOOJrMQZ6kJ5tzoCsom-76">
          <mxGeometry relative="1" as="geometry" />
        </mxCell>
        <mxCell id="IaOOJrMQZ6kJ5tzoCsom-98" style="edgeStyle=orthogonalEdgeStyle;rounded=0;orthogonalLoop=1;jettySize=auto;html=1;exitX=0.5;exitY=0;exitDx=0;exitDy=0;dashed=1;" edge="1" parent="1" source="IaOOJrMQZ6kJ5tzoCsom-95" target="IaOOJrMQZ6kJ5tzoCsom-97">
          <mxGeometry relative="1" as="geometry" />
        </mxCell>
        <mxCell id="IaOOJrMQZ6kJ5tzoCsom-99" value="Permite" style="edgeLabel;html=1;align=center;verticalAlign=middle;resizable=0;points=[];" vertex="1" connectable="0" parent="IaOOJrMQZ6kJ5tzoCsom-98">
          <mxGeometry x="0.035" relative="1" as="geometry">
            <mxPoint as="offset" />
          </mxGeometry>
        </mxCell>
        <mxCell id="IaOOJrMQZ6kJ5tzoCsom-106" style="edgeStyle=orthogonalEdgeStyle;rounded=0;orthogonalLoop=1;jettySize=auto;html=1;exitX=1;exitY=0.5;exitDx=0;exitDy=0;entryX=0.5;entryY=1;entryDx=0;entryDy=0;dashed=1;" edge="1" parent="1" source="IaOOJrMQZ6kJ5tzoCsom-95" target="IaOOJrMQZ6kJ5tzoCsom-104">
          <mxGeometry relative="1" as="geometry" />
        </mxCell>
        <mxCell id="IaOOJrMQZ6kJ5tzoCsom-107" value="Permite" style="edgeLabel;html=1;align=center;verticalAlign=middle;resizable=0;points=[];" vertex="1" connectable="0" parent="IaOOJrMQZ6kJ5tzoCsom-106">
          <mxGeometry x="-0.2375" y="-3" relative="1" as="geometry">
            <mxPoint as="offset" />
          </mxGeometry>
        </mxCell>
        <mxCell id="IaOOJrMQZ6kJ5tzoCsom-95" value="Verificação de cotas de serviços" style="ellipse;whiteSpace=wrap;html=1;labelBackgroundColor=none;" vertex="1" parent="1">
          <mxGeometry x="-939" y="5520" width="90" height="70" as="geometry" />
        </mxCell>
        <mxCell id="IaOOJrMQZ6kJ5tzoCsom-97" value="Cadastro de Agendamento" style="ellipse;whiteSpace=wrap;html=1;labelBackgroundColor=none;" vertex="1" parent="1">
          <mxGeometry x="-970" y="5338" width="90" height="70" as="geometry" />
        </mxCell>
        <mxCell id="IaOOJrMQZ6kJ5tzoCsom-102" style="edgeStyle=orthogonalEdgeStyle;rounded=0;orthogonalLoop=1;jettySize=auto;html=1;entryX=0.5;entryY=0;entryDx=0;entryDy=0;dashed=1;exitX=1;exitY=1;exitDx=0;exitDy=0;" edge="1" parent="1" source="IaOOJrMQZ6kJ5tzoCsom-97" target="IaOOJrMQZ6kJ5tzoCsom-66">
          <mxGeometry relative="1" as="geometry">
            <Array as="points">
              <mxPoint x="-830" y="5398" />
              <mxPoint x="-830" y="5580" />
              <mxPoint x="-785" y="5580" />
            </Array>
          </mxGeometry>
        </mxCell>
        <mxCell id="IaOOJrMQZ6kJ5tzoCsom-103" value="Sistema registra" style="edgeLabel;html=1;align=center;verticalAlign=middle;resizable=0;points=[];" vertex="1" connectable="0" parent="IaOOJrMQZ6kJ5tzoCsom-102">
          <mxGeometry x="-0.2016" y="-1" relative="1" as="geometry">
            <mxPoint as="offset" />
          </mxGeometry>
        </mxCell>
        <mxCell id="IaOOJrMQZ6kJ5tzoCsom-108" style="edgeStyle=orthogonalEdgeStyle;rounded=0;orthogonalLoop=1;jettySize=auto;html=1;exitX=0;exitY=1;exitDx=0;exitDy=0;entryX=0.5;entryY=0;entryDx=0;entryDy=0;dashed=1;" edge="1" parent="1" source="IaOOJrMQZ6kJ5tzoCsom-104" target="IaOOJrMQZ6kJ5tzoCsom-66">
          <mxGeometry relative="1" as="geometry">
            <Array as="points">
              <mxPoint x="-730" y="5398" />
              <mxPoint x="-730" y="5580" />
              <mxPoint x="-785" y="5580" />
            </Array>
          </mxGeometry>
        </mxCell>
        <mxCell id="IaOOJrMQZ6kJ5tzoCsom-109" value="Sistema Registra" style="edgeLabel;html=1;align=center;verticalAlign=middle;resizable=0;points=[];" vertex="1" connectable="0" parent="IaOOJrMQZ6kJ5tzoCsom-108">
          <mxGeometry x="-0.2374" y="1" relative="1" as="geometry">
            <mxPoint as="offset" />
          </mxGeometry>
        </mxCell>
        <mxCell id="IaOOJrMQZ6kJ5tzoCsom-104" value="Cadastrar serviço Executado" style="ellipse;whiteSpace=wrap;html=1;labelBackgroundColor=none;" vertex="1" parent="1">
          <mxGeometry x="-700" y="5338" width="90" height="70" as="geometry" />
        </mxCell>
        <mxCell id="IaOOJrMQZ6kJ5tzoCsom-129" style="edgeStyle=orthogonalEdgeStyle;rounded=0;orthogonalLoop=1;jettySize=auto;html=1;exitX=1;exitY=0.3333333333333333;exitDx=0;exitDy=0;exitPerimeter=0;" edge="1" parent="1" source="IaOOJrMQZ6kJ5tzoCsom-115" target="IaOOJrMQZ6kJ5tzoCsom-117">
          <mxGeometry relative="1" as="geometry" />
        </mxCell>
        <mxCell id="IaOOJrMQZ6kJ5tzoCsom-115" value="Empreendedor&lt;div&gt;Básico&lt;/div&gt;" style="shape=umlActor;verticalLabelPosition=bottom;verticalAlign=top;html=1;outlineConnect=0;labelBackgroundColor=none;" vertex="1" parent="1">
          <mxGeometry x="-950" y="5930" width="30" height="60" as="geometry" />
        </mxCell>
        <mxCell id="IaOOJrMQZ6kJ5tzoCsom-135" style="edgeStyle=orthogonalEdgeStyle;rounded=0;orthogonalLoop=1;jettySize=auto;html=1;exitX=1;exitY=0.5;exitDx=0;exitDy=0;entryX=0.5;entryY=1;entryDx=0;entryDy=0;dashed=1;" edge="1" parent="1" source="IaOOJrMQZ6kJ5tzoCsom-117" target="IaOOJrMQZ6kJ5tzoCsom-67">
          <mxGeometry relative="1" as="geometry" />
        </mxCell>
        <mxCell id="IaOOJrMQZ6kJ5tzoCsom-136" value="Sistema Registra" style="edgeLabel;html=1;align=center;verticalAlign=middle;resizable=0;points=[];" vertex="1" connectable="0" parent="IaOOJrMQZ6kJ5tzoCsom-135">
          <mxGeometry x="-0.2775" y="-2" relative="1" as="geometry">
            <mxPoint as="offset" />
          </mxGeometry>
        </mxCell>
        <mxCell id="IaOOJrMQZ6kJ5tzoCsom-117" value="Gerar relatorio" style="ellipse;whiteSpace=wrap;html=1;labelBackgroundColor=none;" vertex="1" parent="1">
          <mxGeometry x="-849" y="5920" width="90" height="70" as="geometry" />
        </mxCell>
        <mxCell id="IaOOJrMQZ6kJ5tzoCsom-125" style="edgeStyle=orthogonalEdgeStyle;rounded=0;orthogonalLoop=1;jettySize=auto;html=1;dashed=1;entryX=0.5;entryY=1;entryDx=0;entryDy=0;" edge="1" parent="1" source="IaOOJrMQZ6kJ5tzoCsom-119" target="IaOOJrMQZ6kJ5tzoCsom-131">
          <mxGeometry relative="1" as="geometry">
            <mxPoint x="-780" y="6150" as="targetPoint" />
          </mxGeometry>
        </mxCell>
        <mxCell id="IaOOJrMQZ6kJ5tzoCsom-126" value="Permite" style="edgeLabel;html=1;align=center;verticalAlign=middle;resizable=0;points=[];" vertex="1" connectable="0" parent="IaOOJrMQZ6kJ5tzoCsom-125">
          <mxGeometry x="-0.3872" y="-2" relative="1" as="geometry">
            <mxPoint as="offset" />
          </mxGeometry>
        </mxCell>
        <mxCell id="IaOOJrMQZ6kJ5tzoCsom-119" value="Verificação de cotas de relatorios" style="ellipse;whiteSpace=wrap;html=1;labelBackgroundColor=none;" vertex="1" parent="1">
          <mxGeometry x="-980" y="6200" width="90" height="70" as="geometry" />
        </mxCell>
        <mxCell id="IaOOJrMQZ6kJ5tzoCsom-127" style="edgeStyle=orthogonalEdgeStyle;rounded=0;orthogonalLoop=1;jettySize=auto;html=1;dashed=1;" edge="1" parent="1" source="IaOOJrMQZ6kJ5tzoCsom-120" target="IaOOJrMQZ6kJ5tzoCsom-117">
          <mxGeometry relative="1" as="geometry" />
        </mxCell>
        <mxCell id="IaOOJrMQZ6kJ5tzoCsom-128" value="Permite" style="edgeLabel;html=1;align=center;verticalAlign=middle;resizable=0;points=[];" vertex="1" connectable="0" parent="IaOOJrMQZ6kJ5tzoCsom-127">
          <mxGeometry x="-0.1442" relative="1" as="geometry">
            <mxPoint as="offset" />
          </mxGeometry>
        </mxCell>
        <mxCell id="IaOOJrMQZ6kJ5tzoCsom-120" value="Verificação de cotas de relatorios" style="ellipse;whiteSpace=wrap;html=1;labelBackgroundColor=none;" vertex="1" parent="1">
          <mxGeometry x="-980" y="5840" width="90" height="70" as="geometry" />
        </mxCell>
        <mxCell id="IaOOJrMQZ6kJ5tzoCsom-132" style="edgeStyle=orthogonalEdgeStyle;rounded=0;orthogonalLoop=1;jettySize=auto;html=1;exitX=1;exitY=0.3333333333333333;exitDx=0;exitDy=0;exitPerimeter=0;entryX=0;entryY=0.5;entryDx=0;entryDy=0;" edge="1" parent="1" source="IaOOJrMQZ6kJ5tzoCsom-130" target="IaOOJrMQZ6kJ5tzoCsom-131">
          <mxGeometry relative="1" as="geometry" />
        </mxCell>
        <mxCell id="IaOOJrMQZ6kJ5tzoCsom-130" value="Empreendedor&lt;div&gt;Profissional&lt;/div&gt;" style="shape=umlActor;verticalLabelPosition=bottom;verticalAlign=top;html=1;outlineConnect=0;labelBackgroundColor=none;" vertex="1" parent="1">
          <mxGeometry x="-950" y="6105" width="30" height="60" as="geometry" />
        </mxCell>
        <mxCell id="IaOOJrMQZ6kJ5tzoCsom-133" style="edgeStyle=orthogonalEdgeStyle;rounded=0;orthogonalLoop=1;jettySize=auto;html=1;exitX=1;exitY=0.5;exitDx=0;exitDy=0;entryX=0.5;entryY=0;entryDx=0;entryDy=0;dashed=1;" edge="1" parent="1" source="IaOOJrMQZ6kJ5tzoCsom-131" target="IaOOJrMQZ6kJ5tzoCsom-69">
          <mxGeometry relative="1" as="geometry" />
        </mxCell>
        <mxCell id="IaOOJrMQZ6kJ5tzoCsom-134" value="Sistema Registra" style="edgeLabel;html=1;align=center;verticalAlign=middle;resizable=0;points=[];" vertex="1" connectable="0" parent="IaOOJrMQZ6kJ5tzoCsom-133">
          <mxGeometry x="-0.1862" y="-1" relative="1" as="geometry">
            <mxPoint as="offset" />
          </mxGeometry>
        </mxCell>
        <mxCell id="IaOOJrMQZ6kJ5tzoCsom-131" value="Gerar relatorio" style="ellipse;whiteSpace=wrap;html=1;labelBackgroundColor=none;" vertex="1" parent="1">
          <mxGeometry x="-849" y="6090" width="90" height="70" as="geometry" />
        </mxCell>
        <mxCell id="IaOOJrMQZ6kJ5tzoCsom-137" value="SGBD" style="shape=umlActor;verticalLabelPosition=bottom;verticalAlign=top;html=1;outlineConnect=0;labelBackgroundColor=none;" vertex="1" parent="1">
          <mxGeometry x="-3180" y="2760" width="30" height="60" as="geometry" />
        </mxCell>
        <mxCell id="IaOOJrMQZ6kJ5tzoCsom-138" value="Administrador" style="shape=umlActor;verticalLabelPosition=bottom;verticalAlign=top;html=1;outlineConnect=0;labelBackgroundColor=none;" vertex="1" parent="1">
          <mxGeometry x="2410" y="2645" width="30" height="60" as="geometry" />
        </mxCell>
        <mxCell id="IaOOJrMQZ6kJ5tzoCsom-139" value="Cliente" style="shape=umlActor;verticalLabelPosition=bottom;verticalAlign=top;html=1;outlineConnect=0;labelBackgroundColor=none;" vertex="1" parent="1">
          <mxGeometry x="-4380" y="5130" width="30" height="60" as="geometry" />
        </mxCell>
        <mxCell id="IaOOJrMQZ6kJ5tzoCsom-167" style="edgeStyle=orthogonalEdgeStyle;rounded=0;orthogonalLoop=1;jettySize=auto;html=1;exitX=0.5;exitY=1;exitDx=0;exitDy=0;entryX=0;entryY=0.5;entryDx=0;entryDy=0;" edge="1" parent="1" source="IaOOJrMQZ6kJ5tzoCsom-142" target="IaOOJrMQZ6kJ5tzoCsom-165">
          <mxGeometry relative="1" as="geometry" />
        </mxCell>
        <mxCell id="IaOOJrMQZ6kJ5tzoCsom-302" style="edgeStyle=orthogonalEdgeStyle;rounded=0;orthogonalLoop=1;jettySize=auto;html=1;exitX=0.5;exitY=0;exitDx=0;exitDy=0;entryX=0.5;entryY=1;entryDx=0;entryDy=0;dashed=1;" edge="1" parent="1" source="IaOOJrMQZ6kJ5tzoCsom-142" target="IaOOJrMQZ6kJ5tzoCsom-296">
          <mxGeometry relative="1" as="geometry" />
        </mxCell>
        <mxCell id="IaOOJrMQZ6kJ5tzoCsom-142" value="Adquirir Licença" style="ellipse;whiteSpace=wrap;html=1;labelBackgroundColor=none;" vertex="1" parent="1">
          <mxGeometry x="-860" y="2520" width="90" height="70" as="geometry" />
        </mxCell>
        <mxCell id="IaOOJrMQZ6kJ5tzoCsom-168" style="edgeStyle=orthogonalEdgeStyle;rounded=0;orthogonalLoop=1;jettySize=auto;html=1;exitX=0.5;exitY=0;exitDx=0;exitDy=0;entryX=0;entryY=0.5;entryDx=0;entryDy=0;" edge="1" parent="1" source="IaOOJrMQZ6kJ5tzoCsom-143" target="IaOOJrMQZ6kJ5tzoCsom-165">
          <mxGeometry relative="1" as="geometry" />
        </mxCell>
        <mxCell id="IaOOJrMQZ6kJ5tzoCsom-275" style="edgeStyle=orthogonalEdgeStyle;rounded=0;orthogonalLoop=1;jettySize=auto;html=1;exitX=0.5;exitY=1;exitDx=0;exitDy=0;entryX=0.5;entryY=0;entryDx=0;entryDy=0;dashed=1;" edge="1" parent="1" source="IaOOJrMQZ6kJ5tzoCsom-143" target="IaOOJrMQZ6kJ5tzoCsom-274">
          <mxGeometry relative="1" as="geometry" />
        </mxCell>
        <mxCell id="IaOOJrMQZ6kJ5tzoCsom-277" value="&amp;lt;Sistema_verifica&amp;gt;" style="edgeLabel;html=1;align=center;verticalAlign=middle;resizable=0;points=[];" vertex="1" connectable="0" parent="IaOOJrMQZ6kJ5tzoCsom-275">
          <mxGeometry x="-0.171" relative="1" as="geometry">
            <mxPoint x="-26" y="20" as="offset" />
          </mxGeometry>
        </mxCell>
        <mxCell id="IaOOJrMQZ6kJ5tzoCsom-280" style="edgeStyle=orthogonalEdgeStyle;rounded=0;orthogonalLoop=1;jettySize=auto;html=1;exitX=0.5;exitY=1;exitDx=0;exitDy=0;entryX=0.5;entryY=0;entryDx=0;entryDy=0;dashed=1;" edge="1" parent="1" source="IaOOJrMQZ6kJ5tzoCsom-143" target="IaOOJrMQZ6kJ5tzoCsom-279">
          <mxGeometry relative="1" as="geometry" />
        </mxCell>
        <mxCell id="IaOOJrMQZ6kJ5tzoCsom-143" value="Renovar Licença" style="ellipse;whiteSpace=wrap;html=1;labelBackgroundColor=none;" vertex="1" parent="1">
          <mxGeometry x="-860" y="3030" width="90" height="70" as="geometry" />
        </mxCell>
        <mxCell id="IaOOJrMQZ6kJ5tzoCsom-147" style="edgeStyle=orthogonalEdgeStyle;rounded=0;orthogonalLoop=1;jettySize=auto;html=1;exitX=0.5;exitY=0;exitDx=0;exitDy=0;entryX=0.5;entryY=1;entryDx=0;entryDy=0;" edge="1" parent="1" source="IaOOJrMQZ6kJ5tzoCsom-144" target="IaOOJrMQZ6kJ5tzoCsom-145">
          <mxGeometry relative="1" as="geometry" />
        </mxCell>
        <mxCell id="IaOOJrMQZ6kJ5tzoCsom-150" style="edgeStyle=orthogonalEdgeStyle;rounded=0;orthogonalLoop=1;jettySize=auto;html=1;exitX=0.5;exitY=1;exitDx=0;exitDy=0;entryX=0.5;entryY=0;entryDx=0;entryDy=0;" edge="1" parent="1" source="IaOOJrMQZ6kJ5tzoCsom-144" target="IaOOJrMQZ6kJ5tzoCsom-149">
          <mxGeometry relative="1" as="geometry" />
        </mxCell>
        <mxCell id="IaOOJrMQZ6kJ5tzoCsom-155" style="edgeStyle=orthogonalEdgeStyle;rounded=0;orthogonalLoop=1;jettySize=auto;html=1;exitX=1;exitY=0.5;exitDx=0;exitDy=0;entryX=0;entryY=0.5;entryDx=0;entryDy=0;" edge="1" parent="1" source="IaOOJrMQZ6kJ5tzoCsom-144" target="IaOOJrMQZ6kJ5tzoCsom-142">
          <mxGeometry relative="1" as="geometry" />
        </mxCell>
        <mxCell id="IaOOJrMQZ6kJ5tzoCsom-156" style="edgeStyle=orthogonalEdgeStyle;rounded=0;orthogonalLoop=1;jettySize=auto;html=1;exitX=1;exitY=0.5;exitDx=0;exitDy=0;entryX=0;entryY=0.5;entryDx=0;entryDy=0;" edge="1" parent="1" source="IaOOJrMQZ6kJ5tzoCsom-144" target="IaOOJrMQZ6kJ5tzoCsom-143">
          <mxGeometry relative="1" as="geometry" />
        </mxCell>
        <mxCell id="IaOOJrMQZ6kJ5tzoCsom-144" value="Login" style="ellipse;whiteSpace=wrap;html=1;labelBackgroundColor=none;" vertex="1" parent="1">
          <mxGeometry x="-985" y="2760" width="90" height="70" as="geometry" />
        </mxCell>
        <mxCell id="IaOOJrMQZ6kJ5tzoCsom-152" style="edgeStyle=orthogonalEdgeStyle;rounded=0;orthogonalLoop=1;jettySize=auto;html=1;exitX=0;exitY=0.5;exitDx=0;exitDy=0;dashed=1;" edge="1" parent="1" source="IaOOJrMQZ6kJ5tzoCsom-145" target="IaOOJrMQZ6kJ5tzoCsom-148">
          <mxGeometry relative="1" as="geometry" />
        </mxCell>
        <mxCell id="IaOOJrMQZ6kJ5tzoCsom-158" value="&amp;lt;inclui&amp;gt;" style="edgeLabel;html=1;align=center;verticalAlign=middle;resizable=0;points=[];" vertex="1" connectable="0" parent="IaOOJrMQZ6kJ5tzoCsom-152">
          <mxGeometry x="-0.1738" relative="1" as="geometry">
            <mxPoint as="offset" />
          </mxGeometry>
        </mxCell>
        <mxCell id="IaOOJrMQZ6kJ5tzoCsom-154" style="edgeStyle=orthogonalEdgeStyle;rounded=0;orthogonalLoop=1;jettySize=auto;html=1;exitX=1;exitY=0.5;exitDx=0;exitDy=0;dashed=1;" edge="1" parent="1" source="IaOOJrMQZ6kJ5tzoCsom-145" target="IaOOJrMQZ6kJ5tzoCsom-151">
          <mxGeometry relative="1" as="geometry" />
        </mxCell>
        <mxCell id="IaOOJrMQZ6kJ5tzoCsom-159" value="&amp;lt;inclui&amp;gt;" style="edgeLabel;html=1;align=center;verticalAlign=middle;resizable=0;points=[];" vertex="1" connectable="0" parent="IaOOJrMQZ6kJ5tzoCsom-154">
          <mxGeometry x="0.3927" y="-2" relative="1" as="geometry">
            <mxPoint as="offset" />
          </mxGeometry>
        </mxCell>
        <mxCell id="IaOOJrMQZ6kJ5tzoCsom-260" style="edgeStyle=orthogonalEdgeStyle;rounded=0;orthogonalLoop=1;jettySize=auto;html=1;exitX=0.5;exitY=1;exitDx=0;exitDy=0;" edge="1" parent="1" source="IaOOJrMQZ6kJ5tzoCsom-145" target="IaOOJrMQZ6kJ5tzoCsom-144">
          <mxGeometry relative="1" as="geometry" />
        </mxCell>
        <mxCell id="IaOOJrMQZ6kJ5tzoCsom-261" value="Unico caminho" style="edgeLabel;html=1;align=center;verticalAlign=middle;resizable=0;points=[];" vertex="1" connectable="0" parent="IaOOJrMQZ6kJ5tzoCsom-260">
          <mxGeometry x="-0.0028" y="-3" relative="1" as="geometry">
            <mxPoint as="offset" />
          </mxGeometry>
        </mxCell>
        <mxCell id="IaOOJrMQZ6kJ5tzoCsom-265" style="edgeStyle=orthogonalEdgeStyle;rounded=0;orthogonalLoop=1;jettySize=auto;html=1;exitX=0.5;exitY=0;exitDx=0;exitDy=0;entryX=0.5;entryY=1;entryDx=0;entryDy=0;dashed=1;" edge="1" parent="1" source="IaOOJrMQZ6kJ5tzoCsom-145" target="IaOOJrMQZ6kJ5tzoCsom-263">
          <mxGeometry relative="1" as="geometry" />
        </mxCell>
        <mxCell id="IaOOJrMQZ6kJ5tzoCsom-266" value="&amp;lt;inclui&amp;gt;" style="edgeLabel;html=1;align=center;verticalAlign=middle;resizable=0;points=[];" vertex="1" connectable="0" parent="IaOOJrMQZ6kJ5tzoCsom-265">
          <mxGeometry x="-0.1596" y="-1" relative="1" as="geometry">
            <mxPoint as="offset" />
          </mxGeometry>
        </mxCell>
        <mxCell id="IaOOJrMQZ6kJ5tzoCsom-145" value="Cadastro de login" style="ellipse;whiteSpace=wrap;html=1;labelBackgroundColor=none;" vertex="1" parent="1">
          <mxGeometry x="-1066" y="2590" width="90" height="70" as="geometry" />
        </mxCell>
        <mxCell id="IaOOJrMQZ6kJ5tzoCsom-148" value="Verificação de senha" style="ellipse;whiteSpace=wrap;html=1;labelBackgroundColor=none;" vertex="1" parent="1">
          <mxGeometry x="-1180" y="2470" width="90" height="70" as="geometry" />
        </mxCell>
        <mxCell id="IaOOJrMQZ6kJ5tzoCsom-161" style="edgeStyle=orthogonalEdgeStyle;rounded=0;orthogonalLoop=1;jettySize=auto;html=1;exitX=0.5;exitY=1;exitDx=0;exitDy=0;dashed=1;" edge="1" parent="1" source="IaOOJrMQZ6kJ5tzoCsom-149" target="IaOOJrMQZ6kJ5tzoCsom-160">
          <mxGeometry relative="1" as="geometry" />
        </mxCell>
        <mxCell id="IaOOJrMQZ6kJ5tzoCsom-162" value="&amp;lt;inclui&amp;gt;" style="edgeLabel;html=1;align=center;verticalAlign=middle;resizable=0;points=[];" vertex="1" connectable="0" parent="IaOOJrMQZ6kJ5tzoCsom-161">
          <mxGeometry x="-0.2071" y="1" relative="1" as="geometry">
            <mxPoint as="offset" />
          </mxGeometry>
        </mxCell>
        <mxCell id="IaOOJrMQZ6kJ5tzoCsom-164" style="edgeStyle=orthogonalEdgeStyle;rounded=0;orthogonalLoop=1;jettySize=auto;html=1;exitX=1;exitY=0.5;exitDx=0;exitDy=0;entryX=0.5;entryY=0;entryDx=0;entryDy=0;" edge="1" parent="1" source="IaOOJrMQZ6kJ5tzoCsom-149" target="IaOOJrMQZ6kJ5tzoCsom-163">
          <mxGeometry relative="1" as="geometry" />
        </mxCell>
        <mxCell id="IaOOJrMQZ6kJ5tzoCsom-149" value="Recuperação de senha" style="ellipse;whiteSpace=wrap;html=1;labelBackgroundColor=none;" vertex="1" parent="1">
          <mxGeometry x="-1066" y="2960" width="90" height="70" as="geometry" />
        </mxCell>
        <mxCell id="IaOOJrMQZ6kJ5tzoCsom-151" value="Criação de pergunta de segurança" style="ellipse;whiteSpace=wrap;html=1;labelBackgroundColor=none;" vertex="1" parent="1">
          <mxGeometry x="-1000" y="2481" width="90" height="70" as="geometry" />
        </mxCell>
        <mxCell id="IaOOJrMQZ6kJ5tzoCsom-160" value="Verificação de pergunta de segurança" style="ellipse;whiteSpace=wrap;html=1;labelBackgroundColor=none;" vertex="1" parent="1">
          <mxGeometry x="-1066" y="3100" width="90" height="70" as="geometry" />
        </mxCell>
        <mxCell id="IaOOJrMQZ6kJ5tzoCsom-163" value="Redefinir senha" style="ellipse;whiteSpace=wrap;html=1;labelBackgroundColor=none;" vertex="1" parent="1">
          <mxGeometry x="-956" y="3070" width="90" height="70" as="geometry" />
        </mxCell>
        <mxCell id="IaOOJrMQZ6kJ5tzoCsom-178" style="edgeStyle=orthogonalEdgeStyle;rounded=0;orthogonalLoop=1;jettySize=auto;html=1;exitX=0.5;exitY=0;exitDx=0;exitDy=0;entryX=0.5;entryY=1;entryDx=0;entryDy=0;" edge="1" parent="1" source="IaOOJrMQZ6kJ5tzoCsom-165" target="IaOOJrMQZ6kJ5tzoCsom-170">
          <mxGeometry relative="1" as="geometry" />
        </mxCell>
        <mxCell id="IaOOJrMQZ6kJ5tzoCsom-179" style="edgeStyle=orthogonalEdgeStyle;rounded=0;orthogonalLoop=1;jettySize=auto;html=1;exitX=1;exitY=0;exitDx=0;exitDy=0;entryX=0;entryY=0.5;entryDx=0;entryDy=0;" edge="1" parent="1" source="IaOOJrMQZ6kJ5tzoCsom-165" target="IaOOJrMQZ6kJ5tzoCsom-176">
          <mxGeometry relative="1" as="geometry" />
        </mxCell>
        <mxCell id="IaOOJrMQZ6kJ5tzoCsom-190" style="edgeStyle=orthogonalEdgeStyle;rounded=0;orthogonalLoop=1;jettySize=auto;html=1;exitX=1;exitY=0.5;exitDx=0;exitDy=0;entryX=0;entryY=0.5;entryDx=0;entryDy=0;" edge="1" parent="1" source="IaOOJrMQZ6kJ5tzoCsom-165" target="IaOOJrMQZ6kJ5tzoCsom-183">
          <mxGeometry relative="1" as="geometry" />
        </mxCell>
        <mxCell id="IaOOJrMQZ6kJ5tzoCsom-254" style="edgeStyle=orthogonalEdgeStyle;rounded=0;orthogonalLoop=1;jettySize=auto;html=1;exitX=0.5;exitY=1;exitDx=0;exitDy=0;entryX=0;entryY=0.5;entryDx=0;entryDy=0;" edge="1" parent="1" source="IaOOJrMQZ6kJ5tzoCsom-165" target="IaOOJrMQZ6kJ5tzoCsom-193">
          <mxGeometry relative="1" as="geometry" />
        </mxCell>
        <mxCell id="IaOOJrMQZ6kJ5tzoCsom-257" style="edgeStyle=orthogonalEdgeStyle;rounded=0;orthogonalLoop=1;jettySize=auto;html=1;exitX=0.5;exitY=1;exitDx=0;exitDy=0;entryX=0;entryY=0.5;entryDx=0;entryDy=0;" edge="1" parent="1" source="IaOOJrMQZ6kJ5tzoCsom-165" target="IaOOJrMQZ6kJ5tzoCsom-234">
          <mxGeometry relative="1" as="geometry" />
        </mxCell>
        <mxCell id="IaOOJrMQZ6kJ5tzoCsom-258" style="edgeStyle=orthogonalEdgeStyle;rounded=0;orthogonalLoop=1;jettySize=auto;html=1;exitX=0.5;exitY=1;exitDx=0;exitDy=0;entryX=0;entryY=0.5;entryDx=0;entryDy=0;" edge="1" parent="1" source="IaOOJrMQZ6kJ5tzoCsom-165" target="IaOOJrMQZ6kJ5tzoCsom-196">
          <mxGeometry relative="1" as="geometry" />
        </mxCell>
        <mxCell id="IaOOJrMQZ6kJ5tzoCsom-165" value="Acesso a conta" style="ellipse;whiteSpace=wrap;html=1;labelBackgroundColor=none;" vertex="1" parent="1">
          <mxGeometry x="-790" y="2765" width="90" height="70" as="geometry" />
        </mxCell>
        <mxCell id="IaOOJrMQZ6kJ5tzoCsom-177" style="edgeStyle=orthogonalEdgeStyle;rounded=0;orthogonalLoop=1;jettySize=auto;html=1;exitX=0.5;exitY=0;exitDx=0;exitDy=0;entryX=0.5;entryY=1;entryDx=0;entryDy=0;" edge="1" parent="1" source="IaOOJrMQZ6kJ5tzoCsom-170" target="IaOOJrMQZ6kJ5tzoCsom-172">
          <mxGeometry relative="1" as="geometry" />
        </mxCell>
        <mxCell id="IaOOJrMQZ6kJ5tzoCsom-170" value="Consultar cotas" style="ellipse;whiteSpace=wrap;html=1;labelBackgroundColor=none;" vertex="1" parent="1">
          <mxGeometry x="-790" y="2618" width="90" height="70" as="geometry" />
        </mxCell>
        <mxCell id="IaOOJrMQZ6kJ5tzoCsom-171" value="SGBD" style="shape=umlActor;verticalLabelPosition=bottom;verticalAlign=top;html=1;outlineConnect=0;labelBackgroundColor=none;" vertex="1" parent="1">
          <mxGeometry x="-1045" y="4480" width="30" height="60" as="geometry" />
        </mxCell>
        <mxCell id="IaOOJrMQZ6kJ5tzoCsom-293" style="edgeStyle=orthogonalEdgeStyle;rounded=0;orthogonalLoop=1;jettySize=auto;html=1;exitX=0.5;exitY=0;exitDx=0;exitDy=0;dashed=1;" edge="1" parent="1" source="IaOOJrMQZ6kJ5tzoCsom-172" target="IaOOJrMQZ6kJ5tzoCsom-262">
          <mxGeometry relative="1" as="geometry">
            <Array as="points">
              <mxPoint x="-745" y="2410" />
              <mxPoint x="-660" y="2410" />
              <mxPoint x="-660" y="2190" />
            </Array>
          </mxGeometry>
        </mxCell>
        <mxCell id="IaOOJrMQZ6kJ5tzoCsom-172" value="Solicitar mais cotas" style="ellipse;whiteSpace=wrap;html=1;labelBackgroundColor=none;" vertex="1" parent="1">
          <mxGeometry x="-790" y="2430" width="90" height="70" as="geometry" />
        </mxCell>
        <mxCell id="IaOOJrMQZ6kJ5tzoCsom-309" style="edgeStyle=orthogonalEdgeStyle;rounded=0;orthogonalLoop=1;jettySize=auto;html=1;exitX=0.5;exitY=0;exitDx=0;exitDy=0;dashed=1;" edge="1" parent="1" source="IaOOJrMQZ6kJ5tzoCsom-173" target="IaOOJrMQZ6kJ5tzoCsom-305">
          <mxGeometry relative="1" as="geometry">
            <Array as="points">
              <mxPoint x="-616" y="2130" />
            </Array>
          </mxGeometry>
        </mxCell>
        <mxCell id="IaOOJrMQZ6kJ5tzoCsom-316" value="&amp;lt;Sistema_registra&amp;gt;" style="edgeLabel;html=1;align=center;verticalAlign=middle;resizable=0;points=[];" vertex="1" connectable="0" parent="IaOOJrMQZ6kJ5tzoCsom-309">
          <mxGeometry x="-0.5761" y="2" relative="1" as="geometry">
            <mxPoint x="2" y="-112" as="offset" />
          </mxGeometry>
        </mxCell>
        <mxCell id="IaOOJrMQZ6kJ5tzoCsom-173" value="Cadastrar funcionario" style="ellipse;whiteSpace=wrap;html=1;labelBackgroundColor=none;" vertex="1" parent="1">
          <mxGeometry x="-661" y="2438" width="90" height="70" as="geometry" />
        </mxCell>
        <mxCell id="IaOOJrMQZ6kJ5tzoCsom-188" style="edgeStyle=orthogonalEdgeStyle;rounded=0;orthogonalLoop=1;jettySize=auto;html=1;entryX=0.5;entryY=1;entryDx=0;entryDy=0;exitX=0.5;exitY=0;exitDx=0;exitDy=0;" edge="1" parent="1" source="IaOOJrMQZ6kJ5tzoCsom-174" target="IaOOJrMQZ6kJ5tzoCsom-175">
          <mxGeometry relative="1" as="geometry" />
        </mxCell>
        <mxCell id="IaOOJrMQZ6kJ5tzoCsom-311" style="edgeStyle=orthogonalEdgeStyle;rounded=0;orthogonalLoop=1;jettySize=auto;html=1;exitX=0.5;exitY=0;exitDx=0;exitDy=0;dashed=1;" edge="1" parent="1" source="IaOOJrMQZ6kJ5tzoCsom-174" target="IaOOJrMQZ6kJ5tzoCsom-305">
          <mxGeometry relative="1" as="geometry">
            <Array as="points">
              <mxPoint x="-405" y="2230" />
              <mxPoint x="-315" y="2230" />
            </Array>
          </mxGeometry>
        </mxCell>
        <mxCell id="IaOOJrMQZ6kJ5tzoCsom-318" value="&amp;lt;Sistema_registra&amp;gt;" style="edgeLabel;html=1;align=center;verticalAlign=middle;resizable=0;points=[];" vertex="1" connectable="0" parent="IaOOJrMQZ6kJ5tzoCsom-311">
          <mxGeometry x="-0.1699" relative="1" as="geometry">
            <mxPoint as="offset" />
          </mxGeometry>
        </mxCell>
        <mxCell id="IaOOJrMQZ6kJ5tzoCsom-174" value="Cadastrar cliente" style="ellipse;whiteSpace=wrap;html=1;labelBackgroundColor=none;" vertex="1" parent="1">
          <mxGeometry x="-450" y="2500" width="90" height="70" as="geometry" />
        </mxCell>
        <mxCell id="IaOOJrMQZ6kJ5tzoCsom-312" style="edgeStyle=orthogonalEdgeStyle;rounded=0;orthogonalLoop=1;jettySize=auto;html=1;exitX=0.5;exitY=0;exitDx=0;exitDy=0;dashed=1;" edge="1" parent="1" source="IaOOJrMQZ6kJ5tzoCsom-175" target="IaOOJrMQZ6kJ5tzoCsom-305">
          <mxGeometry relative="1" as="geometry" />
        </mxCell>
        <mxCell id="IaOOJrMQZ6kJ5tzoCsom-319" value="&amp;lt;Sistema_registra&amp;gt;" style="edgeLabel;html=1;align=center;verticalAlign=middle;resizable=0;points=[];" vertex="1" connectable="0" parent="IaOOJrMQZ6kJ5tzoCsom-312">
          <mxGeometry x="-0.3841" relative="1" as="geometry">
            <mxPoint y="31" as="offset" />
          </mxGeometry>
        </mxCell>
        <mxCell id="IaOOJrMQZ6kJ5tzoCsom-175" value="Cadastrar Pet" style="ellipse;whiteSpace=wrap;html=1;labelBackgroundColor=none;" vertex="1" parent="1">
          <mxGeometry x="-360" y="2390" width="90" height="70" as="geometry" />
        </mxCell>
        <mxCell id="IaOOJrMQZ6kJ5tzoCsom-180" style="edgeStyle=orthogonalEdgeStyle;rounded=0;orthogonalLoop=1;jettySize=auto;html=1;exitX=0.5;exitY=0;exitDx=0;exitDy=0;entryX=0.5;entryY=1;entryDx=0;entryDy=0;" edge="1" parent="1" source="IaOOJrMQZ6kJ5tzoCsom-176" target="IaOOJrMQZ6kJ5tzoCsom-173">
          <mxGeometry relative="1" as="geometry">
            <Array as="points" />
          </mxGeometry>
        </mxCell>
        <mxCell id="IaOOJrMQZ6kJ5tzoCsom-182" style="edgeStyle=orthogonalEdgeStyle;rounded=0;orthogonalLoop=1;jettySize=auto;html=1;exitX=1;exitY=0.5;exitDx=0;exitDy=0;" edge="1" parent="1" source="IaOOJrMQZ6kJ5tzoCsom-176" target="IaOOJrMQZ6kJ5tzoCsom-181">
          <mxGeometry relative="1" as="geometry" />
        </mxCell>
        <mxCell id="IaOOJrMQZ6kJ5tzoCsom-176" value="Acesso aos Funcionarios" style="ellipse;whiteSpace=wrap;html=1;labelBackgroundColor=none;" vertex="1" parent="1">
          <mxGeometry x="-660" y="2560" width="90" height="70" as="geometry" />
        </mxCell>
        <mxCell id="IaOOJrMQZ6kJ5tzoCsom-310" style="edgeStyle=orthogonalEdgeStyle;rounded=0;orthogonalLoop=1;jettySize=auto;html=1;exitX=0.5;exitY=0;exitDx=0;exitDy=0;dashed=1;" edge="1" parent="1" source="IaOOJrMQZ6kJ5tzoCsom-181" target="IaOOJrMQZ6kJ5tzoCsom-305">
          <mxGeometry relative="1" as="geometry">
            <Array as="points">
              <mxPoint x="-505" y="2130" />
            </Array>
          </mxGeometry>
        </mxCell>
        <mxCell id="IaOOJrMQZ6kJ5tzoCsom-317" value="&amp;lt;Sistema_registra&amp;gt;" style="edgeLabel;html=1;align=center;verticalAlign=middle;resizable=0;points=[];" vertex="1" connectable="0" parent="IaOOJrMQZ6kJ5tzoCsom-310">
          <mxGeometry x="-0.5031" y="1" relative="1" as="geometry">
            <mxPoint x="1" y="-48" as="offset" />
          </mxGeometry>
        </mxCell>
        <mxCell id="IaOOJrMQZ6kJ5tzoCsom-181" value="Lista de funcionario" style="ellipse;whiteSpace=wrap;html=1;labelBackgroundColor=none;" vertex="1" parent="1">
          <mxGeometry x="-550" y="2438" width="90" height="70" as="geometry" />
        </mxCell>
        <mxCell id="IaOOJrMQZ6kJ5tzoCsom-186" style="edgeStyle=orthogonalEdgeStyle;rounded=0;orthogonalLoop=1;jettySize=auto;html=1;exitX=1;exitY=0;exitDx=0;exitDy=0;entryX=0;entryY=0.5;entryDx=0;entryDy=0;" edge="1" parent="1" source="IaOOJrMQZ6kJ5tzoCsom-183" target="IaOOJrMQZ6kJ5tzoCsom-174">
          <mxGeometry relative="1" as="geometry" />
        </mxCell>
        <mxCell id="IaOOJrMQZ6kJ5tzoCsom-195" style="edgeStyle=orthogonalEdgeStyle;rounded=0;orthogonalLoop=1;jettySize=auto;html=1;exitX=1;exitY=0.5;exitDx=0;exitDy=0;entryX=0.5;entryY=1;entryDx=0;entryDy=0;" edge="1" parent="1" source="IaOOJrMQZ6kJ5tzoCsom-183" target="IaOOJrMQZ6kJ5tzoCsom-194">
          <mxGeometry relative="1" as="geometry">
            <Array as="points">
              <mxPoint x="-460" y="2653" />
              <mxPoint x="-460" y="2600" />
              <mxPoint x="-325" y="2600" />
              <mxPoint x="-325" y="2550" />
              <mxPoint x="-115" y="2550" />
            </Array>
          </mxGeometry>
        </mxCell>
        <mxCell id="IaOOJrMQZ6kJ5tzoCsom-183" value="Acesso aos Clientes" style="ellipse;whiteSpace=wrap;html=1;labelBackgroundColor=none;" vertex="1" parent="1">
          <mxGeometry x="-580" y="2618" width="90" height="70" as="geometry" />
        </mxCell>
        <mxCell id="IaOOJrMQZ6kJ5tzoCsom-315" style="edgeStyle=orthogonalEdgeStyle;rounded=0;orthogonalLoop=1;jettySize=auto;html=1;exitX=0.5;exitY=0;exitDx=0;exitDy=0;dashed=1;" edge="1" parent="1" source="IaOOJrMQZ6kJ5tzoCsom-184" target="IaOOJrMQZ6kJ5tzoCsom-305">
          <mxGeometry relative="1" as="geometry">
            <Array as="points">
              <mxPoint x="-15" y="2130" />
            </Array>
          </mxGeometry>
        </mxCell>
        <mxCell id="IaOOJrMQZ6kJ5tzoCsom-322" value="&amp;lt;Sistema_registra&amp;gt;" style="edgeLabel;html=1;align=center;verticalAlign=middle;resizable=0;points=[];" vertex="1" connectable="0" parent="IaOOJrMQZ6kJ5tzoCsom-315">
          <mxGeometry x="-0.7358" y="1" relative="1" as="geometry">
            <mxPoint x="1" y="-128" as="offset" />
          </mxGeometry>
        </mxCell>
        <mxCell id="IaOOJrMQZ6kJ5tzoCsom-184" value="Lista de Clientes" style="ellipse;whiteSpace=wrap;html=1;labelBackgroundColor=none;" vertex="1" parent="1">
          <mxGeometry x="-60" y="2390" width="90" height="70" as="geometry" />
        </mxCell>
        <mxCell id="IaOOJrMQZ6kJ5tzoCsom-313" style="edgeStyle=orthogonalEdgeStyle;rounded=0;orthogonalLoop=1;jettySize=auto;html=1;exitX=0.5;exitY=0;exitDx=0;exitDy=0;dashed=1;" edge="1" parent="1" source="IaOOJrMQZ6kJ5tzoCsom-185" target="IaOOJrMQZ6kJ5tzoCsom-305">
          <mxGeometry relative="1" as="geometry">
            <Array as="points">
              <mxPoint x="-216" y="2230" />
              <mxPoint x="-315" y="2230" />
            </Array>
          </mxGeometry>
        </mxCell>
        <mxCell id="IaOOJrMQZ6kJ5tzoCsom-320" value="&amp;lt;Sistema_registra&amp;gt;" style="edgeLabel;html=1;align=center;verticalAlign=middle;resizable=0;points=[];" vertex="1" connectable="0" parent="IaOOJrMQZ6kJ5tzoCsom-313">
          <mxGeometry x="-0.5981" y="-1" relative="1" as="geometry">
            <mxPoint as="offset" />
          </mxGeometry>
        </mxCell>
        <mxCell id="IaOOJrMQZ6kJ5tzoCsom-185" value="Lista de pets" style="ellipse;whiteSpace=wrap;html=1;labelBackgroundColor=none;" vertex="1" parent="1">
          <mxGeometry x="-261" y="2390" width="90" height="70" as="geometry" />
        </mxCell>
        <mxCell id="IaOOJrMQZ6kJ5tzoCsom-187" style="edgeStyle=orthogonalEdgeStyle;rounded=0;orthogonalLoop=1;jettySize=auto;html=1;exitX=1;exitY=1;exitDx=0;exitDy=0;entryX=0.5;entryY=1;entryDx=0;entryDy=0;" edge="1" parent="1" source="IaOOJrMQZ6kJ5tzoCsom-183" target="IaOOJrMQZ6kJ5tzoCsom-184">
          <mxGeometry relative="1" as="geometry">
            <Array as="points">
              <mxPoint x="-450" y="2678" />
              <mxPoint x="-450" y="2640" />
              <mxPoint x="-270" y="2640" />
              <mxPoint x="-270" y="2570" />
              <mxPoint x="-15" y="2570" />
            </Array>
          </mxGeometry>
        </mxCell>
        <mxCell id="IaOOJrMQZ6kJ5tzoCsom-189" style="edgeStyle=orthogonalEdgeStyle;rounded=0;orthogonalLoop=1;jettySize=auto;html=1;exitX=1;exitY=0.5;exitDx=0;exitDy=0;entryX=0.5;entryY=1;entryDx=0;entryDy=0;" edge="1" parent="1" source="IaOOJrMQZ6kJ5tzoCsom-174" target="IaOOJrMQZ6kJ5tzoCsom-185">
          <mxGeometry relative="1" as="geometry" />
        </mxCell>
        <mxCell id="IaOOJrMQZ6kJ5tzoCsom-203" style="edgeStyle=orthogonalEdgeStyle;rounded=0;orthogonalLoop=1;jettySize=auto;html=1;exitX=1;exitY=0.5;exitDx=0;exitDy=0;entryX=0;entryY=0.5;entryDx=0;entryDy=0;" edge="1" parent="1" source="IaOOJrMQZ6kJ5tzoCsom-193" target="IaOOJrMQZ6kJ5tzoCsom-199">
          <mxGeometry relative="1" as="geometry" />
        </mxCell>
        <mxCell id="IaOOJrMQZ6kJ5tzoCsom-204" style="edgeStyle=orthogonalEdgeStyle;rounded=0;orthogonalLoop=1;jettySize=auto;html=1;exitX=1;exitY=0.5;exitDx=0;exitDy=0;entryX=0;entryY=0.5;entryDx=0;entryDy=0;" edge="1" parent="1" source="IaOOJrMQZ6kJ5tzoCsom-193" target="IaOOJrMQZ6kJ5tzoCsom-200">
          <mxGeometry relative="1" as="geometry" />
        </mxCell>
        <mxCell id="IaOOJrMQZ6kJ5tzoCsom-208" style="edgeStyle=orthogonalEdgeStyle;rounded=0;orthogonalLoop=1;jettySize=auto;html=1;exitX=1;exitY=0.5;exitDx=0;exitDy=0;entryX=0;entryY=0.5;entryDx=0;entryDy=0;" edge="1" parent="1" source="IaOOJrMQZ6kJ5tzoCsom-193" target="IaOOJrMQZ6kJ5tzoCsom-207">
          <mxGeometry relative="1" as="geometry" />
        </mxCell>
        <mxCell id="IaOOJrMQZ6kJ5tzoCsom-193" value="Acesso aos agendamentos" style="ellipse;whiteSpace=wrap;html=1;labelBackgroundColor=none;" vertex="1" parent="1">
          <mxGeometry x="-500" y="2710" width="90" height="70" as="geometry" />
        </mxCell>
        <mxCell id="IaOOJrMQZ6kJ5tzoCsom-314" style="edgeStyle=orthogonalEdgeStyle;rounded=0;orthogonalLoop=1;jettySize=auto;html=1;exitX=0.5;exitY=0;exitDx=0;exitDy=0;dashed=1;" edge="1" parent="1" source="IaOOJrMQZ6kJ5tzoCsom-194" target="IaOOJrMQZ6kJ5tzoCsom-305">
          <mxGeometry relative="1" as="geometry">
            <Array as="points">
              <mxPoint x="-115" y="2130" />
            </Array>
          </mxGeometry>
        </mxCell>
        <mxCell id="IaOOJrMQZ6kJ5tzoCsom-321" value="&amp;lt;Sistema_registra&amp;gt;" style="edgeLabel;html=1;align=center;verticalAlign=middle;resizable=0;points=[];" vertex="1" connectable="0" parent="IaOOJrMQZ6kJ5tzoCsom-314">
          <mxGeometry x="-0.7134" y="2" relative="1" as="geometry">
            <mxPoint x="2" y="-66" as="offset" />
          </mxGeometry>
        </mxCell>
        <mxCell id="IaOOJrMQZ6kJ5tzoCsom-194" value="Buscar de cliente e pet" style="ellipse;whiteSpace=wrap;html=1;labelBackgroundColor=none;" vertex="1" parent="1">
          <mxGeometry x="-160" y="2390" width="90" height="70" as="geometry" />
        </mxCell>
        <mxCell id="IaOOJrMQZ6kJ5tzoCsom-198" style="edgeStyle=orthogonalEdgeStyle;rounded=0;orthogonalLoop=1;jettySize=auto;html=1;exitX=0.5;exitY=1;exitDx=0;exitDy=0;entryX=0;entryY=0.5;entryDx=0;entryDy=0;" edge="1" parent="1" source="IaOOJrMQZ6kJ5tzoCsom-196" target="IaOOJrMQZ6kJ5tzoCsom-197">
          <mxGeometry relative="1" as="geometry" />
        </mxCell>
        <mxCell id="IaOOJrMQZ6kJ5tzoCsom-196" value="Acesso ao perfil da empresa" style="ellipse;whiteSpace=wrap;html=1;labelBackgroundColor=none;" vertex="1" parent="1">
          <mxGeometry x="-720" y="3020" width="90" height="70" as="geometry" />
        </mxCell>
        <mxCell id="IaOOJrMQZ6kJ5tzoCsom-306" style="edgeStyle=orthogonalEdgeStyle;rounded=0;orthogonalLoop=1;jettySize=auto;html=1;exitX=0.5;exitY=1;exitDx=0;exitDy=0;dashed=1;" edge="1" parent="1" source="IaOOJrMQZ6kJ5tzoCsom-197" target="IaOOJrMQZ6kJ5tzoCsom-270">
          <mxGeometry relative="1" as="geometry">
            <Array as="points">
              <mxPoint x="-605" y="3370" />
            </Array>
          </mxGeometry>
        </mxCell>
        <mxCell id="IaOOJrMQZ6kJ5tzoCsom-307" value="&amp;lt;Sistema_Registra&amp;gt;" style="edgeLabel;html=1;align=center;verticalAlign=middle;resizable=0;points=[];" vertex="1" connectable="0" parent="IaOOJrMQZ6kJ5tzoCsom-306">
          <mxGeometry x="-0.661" relative="1" as="geometry">
            <mxPoint as="offset" />
          </mxGeometry>
        </mxCell>
        <mxCell id="IaOOJrMQZ6kJ5tzoCsom-197" value="Adicionar dados da empresa" style="ellipse;whiteSpace=wrap;html=1;labelBackgroundColor=none;" vertex="1" parent="1">
          <mxGeometry x="-650" y="3110" width="90" height="70" as="geometry" />
        </mxCell>
        <mxCell id="IaOOJrMQZ6kJ5tzoCsom-209" style="edgeStyle=orthogonalEdgeStyle;rounded=0;orthogonalLoop=1;jettySize=auto;html=1;exitX=1;exitY=0.5;exitDx=0;exitDy=0;entryX=0.5;entryY=0;entryDx=0;entryDy=0;" edge="1" parent="1" source="IaOOJrMQZ6kJ5tzoCsom-199" target="IaOOJrMQZ6kJ5tzoCsom-205">
          <mxGeometry relative="1" as="geometry" />
        </mxCell>
        <mxCell id="IaOOJrMQZ6kJ5tzoCsom-218" style="edgeStyle=orthogonalEdgeStyle;rounded=0;orthogonalLoop=1;jettySize=auto;html=1;exitX=0.5;exitY=1;exitDx=0;exitDy=0;entryX=0;entryY=0;entryDx=0;entryDy=0;dashed=1;" edge="1" parent="1" source="IaOOJrMQZ6kJ5tzoCsom-199" target="IaOOJrMQZ6kJ5tzoCsom-216">
          <mxGeometry relative="1" as="geometry">
            <Array as="points" />
          </mxGeometry>
        </mxCell>
        <mxCell id="IaOOJrMQZ6kJ5tzoCsom-247" value="&amp;lt;inclui&amp;gt;" style="edgeLabel;html=1;align=center;verticalAlign=middle;resizable=0;points=[];" vertex="1" connectable="0" parent="IaOOJrMQZ6kJ5tzoCsom-218">
          <mxGeometry x="-0.2381" y="-1" relative="1" as="geometry">
            <mxPoint x="62" y="-1" as="offset" />
          </mxGeometry>
        </mxCell>
        <mxCell id="IaOOJrMQZ6kJ5tzoCsom-256" style="edgeStyle=orthogonalEdgeStyle;rounded=0;orthogonalLoop=1;jettySize=auto;html=1;exitX=0.5;exitY=0;exitDx=0;exitDy=0;entryX=0;entryY=0.5;entryDx=0;entryDy=0;" edge="1" parent="1" source="IaOOJrMQZ6kJ5tzoCsom-199" target="IaOOJrMQZ6kJ5tzoCsom-212">
          <mxGeometry relative="1" as="geometry" />
        </mxCell>
        <mxCell id="IaOOJrMQZ6kJ5tzoCsom-199" value="Cadastrar agendamentos" style="ellipse;whiteSpace=wrap;html=1;labelBackgroundColor=none;" vertex="1" parent="1">
          <mxGeometry x="-180" y="2645" width="90" height="70" as="geometry" />
        </mxCell>
        <mxCell id="IaOOJrMQZ6kJ5tzoCsom-210" style="edgeStyle=orthogonalEdgeStyle;rounded=0;orthogonalLoop=1;jettySize=auto;html=1;exitX=1;exitY=0.5;exitDx=0;exitDy=0;entryX=0.5;entryY=1;entryDx=0;entryDy=0;" edge="1" parent="1" source="IaOOJrMQZ6kJ5tzoCsom-200" target="IaOOJrMQZ6kJ5tzoCsom-205">
          <mxGeometry relative="1" as="geometry" />
        </mxCell>
        <mxCell id="IaOOJrMQZ6kJ5tzoCsom-200" value="Cadastrar serviço executado" style="ellipse;whiteSpace=wrap;html=1;labelBackgroundColor=none;" vertex="1" parent="1">
          <mxGeometry x="-306" y="2830" width="90" height="70" as="geometry" />
        </mxCell>
        <mxCell id="IaOOJrMQZ6kJ5tzoCsom-201" value="Atribuir estado de disponibilidade de funcionario" style="ellipse;whiteSpace=wrap;html=1;labelBackgroundColor=none;" vertex="1" parent="1">
          <mxGeometry x="250" y="2835" width="110" height="80" as="geometry" />
        </mxCell>
        <mxCell id="IaOOJrMQZ6kJ5tzoCsom-206" style="edgeStyle=orthogonalEdgeStyle;rounded=0;orthogonalLoop=1;jettySize=auto;html=1;exitX=1;exitY=0.5;exitDx=0;exitDy=0;entryX=0;entryY=0.5;entryDx=0;entryDy=0;" edge="1" parent="1" source="IaOOJrMQZ6kJ5tzoCsom-205" target="IaOOJrMQZ6kJ5tzoCsom-201">
          <mxGeometry relative="1" as="geometry" />
        </mxCell>
        <mxCell id="IaOOJrMQZ6kJ5tzoCsom-215" style="edgeStyle=orthogonalEdgeStyle;rounded=0;orthogonalLoop=1;jettySize=auto;html=1;exitX=1;exitY=0.5;exitDx=0;exitDy=0;entryX=0;entryY=0.5;entryDx=0;entryDy=0;" edge="1" parent="1" source="IaOOJrMQZ6kJ5tzoCsom-205" target="IaOOJrMQZ6kJ5tzoCsom-214">
          <mxGeometry relative="1" as="geometry">
            <Array as="points">
              <mxPoint x="380" y="2795" />
              <mxPoint x="380" y="2863" />
            </Array>
          </mxGeometry>
        </mxCell>
        <mxCell id="IaOOJrMQZ6kJ5tzoCsom-229" style="edgeStyle=orthogonalEdgeStyle;rounded=0;orthogonalLoop=1;jettySize=auto;html=1;exitX=1;exitY=0.5;exitDx=0;exitDy=0;entryX=0;entryY=0.5;entryDx=0;entryDy=0;" edge="1" parent="1" source="IaOOJrMQZ6kJ5tzoCsom-205" target="IaOOJrMQZ6kJ5tzoCsom-223">
          <mxGeometry relative="1" as="geometry" />
        </mxCell>
        <mxCell id="IaOOJrMQZ6kJ5tzoCsom-230" style="edgeStyle=orthogonalEdgeStyle;rounded=0;orthogonalLoop=1;jettySize=auto;html=1;exitX=1;exitY=0.5;exitDx=0;exitDy=0;entryX=0;entryY=0.5;entryDx=0;entryDy=0;" edge="1" parent="1" source="IaOOJrMQZ6kJ5tzoCsom-205" target="IaOOJrMQZ6kJ5tzoCsom-227">
          <mxGeometry relative="1" as="geometry">
            <Array as="points">
              <mxPoint x="240" y="2795" />
              <mxPoint x="240" y="2700" />
              <mxPoint x="350" y="2700" />
              <mxPoint x="350" y="2665" />
            </Array>
          </mxGeometry>
        </mxCell>
        <mxCell id="IaOOJrMQZ6kJ5tzoCsom-231" style="edgeStyle=orthogonalEdgeStyle;rounded=0;orthogonalLoop=1;jettySize=auto;html=1;exitX=1;exitY=0.5;exitDx=0;exitDy=0;entryX=0;entryY=0.5;entryDx=0;entryDy=0;" edge="1" parent="1" source="IaOOJrMQZ6kJ5tzoCsom-205" target="IaOOJrMQZ6kJ5tzoCsom-226">
          <mxGeometry relative="1" as="geometry">
            <mxPoint x="420.00000000003047" y="2525" as="targetPoint" />
            <Array as="points">
              <mxPoint x="240" y="2795" />
              <mxPoint x="240" y="2660" />
              <mxPoint x="320" y="2660" />
              <mxPoint x="320" y="2570" />
            </Array>
          </mxGeometry>
        </mxCell>
        <mxCell id="IaOOJrMQZ6kJ5tzoCsom-232" style="edgeStyle=orthogonalEdgeStyle;rounded=0;orthogonalLoop=1;jettySize=auto;html=1;exitX=1;exitY=0.5;exitDx=0;exitDy=0;entryX=0;entryY=0.5;entryDx=0;entryDy=0;" edge="1" parent="1" source="IaOOJrMQZ6kJ5tzoCsom-205" target="IaOOJrMQZ6kJ5tzoCsom-225">
          <mxGeometry relative="1" as="geometry" />
        </mxCell>
        <mxCell id="IaOOJrMQZ6kJ5tzoCsom-205" value="Historico de agendamentos" style="ellipse;whiteSpace=wrap;html=1;labelBackgroundColor=none;" vertex="1" parent="1">
          <mxGeometry x="130" y="2760" width="90" height="70" as="geometry" />
        </mxCell>
        <mxCell id="IaOOJrMQZ6kJ5tzoCsom-211" style="edgeStyle=orthogonalEdgeStyle;rounded=0;orthogonalLoop=1;jettySize=auto;html=1;exitX=1;exitY=0.5;exitDx=0;exitDy=0;entryX=0;entryY=0.5;entryDx=0;entryDy=0;" edge="1" parent="1" source="IaOOJrMQZ6kJ5tzoCsom-207" target="IaOOJrMQZ6kJ5tzoCsom-205">
          <mxGeometry relative="1" as="geometry" />
        </mxCell>
        <mxCell id="IaOOJrMQZ6kJ5tzoCsom-220" style="edgeStyle=orthogonalEdgeStyle;rounded=0;orthogonalLoop=1;jettySize=auto;html=1;exitX=1;exitY=0;exitDx=0;exitDy=0;entryX=0;entryY=1;entryDx=0;entryDy=0;dashed=1;" edge="1" parent="1" source="IaOOJrMQZ6kJ5tzoCsom-207" target="IaOOJrMQZ6kJ5tzoCsom-216">
          <mxGeometry relative="1" as="geometry">
            <Array as="points">
              <mxPoint x="-65" y="2749" />
              <mxPoint x="63" y="2749" />
            </Array>
          </mxGeometry>
        </mxCell>
        <mxCell id="IaOOJrMQZ6kJ5tzoCsom-248" value="&amp;lt;inclui&amp;gt;" style="edgeLabel;html=1;align=center;verticalAlign=middle;resizable=0;points=[];" vertex="1" connectable="0" parent="IaOOJrMQZ6kJ5tzoCsom-220">
          <mxGeometry x="-0.4054" relative="1" as="geometry">
            <mxPoint x="44" as="offset" />
          </mxGeometry>
        </mxCell>
        <mxCell id="IaOOJrMQZ6kJ5tzoCsom-207" value="Criar pacotes de agendamentos recorrentes" style="ellipse;whiteSpace=wrap;html=1;labelBackgroundColor=none;" vertex="1" parent="1">
          <mxGeometry x="-210" y="2765" width="100" height="80" as="geometry" />
        </mxCell>
        <mxCell id="IaOOJrMQZ6kJ5tzoCsom-212" value="Atribuir estado de disponibilidade de funcionario" style="ellipse;whiteSpace=wrap;html=1;labelBackgroundColor=none;" vertex="1" parent="1">
          <mxGeometry x="-20" y="2580" width="110" height="80" as="geometry" />
        </mxCell>
        <mxCell id="IaOOJrMQZ6kJ5tzoCsom-214" value="Remover estado de disponibilidade de funcionario" style="ellipse;whiteSpace=wrap;html=1;labelBackgroundColor=none;" vertex="1" parent="1">
          <mxGeometry x="410" y="2825" width="130" height="75" as="geometry" />
        </mxCell>
        <mxCell id="IaOOJrMQZ6kJ5tzoCsom-216" value="Definir categoria de serviço" style="ellipse;whiteSpace=wrap;html=1;labelBackgroundColor=none;" vertex="1" parent="1">
          <mxGeometry x="49" y="2690" width="101" height="70" as="geometry" />
        </mxCell>
        <mxCell id="IaOOJrMQZ6kJ5tzoCsom-223" value="Excluir um pacote de agendamento" style="ellipse;whiteSpace=wrap;html=1;labelBackgroundColor=none;" vertex="1" parent="1">
          <mxGeometry x="400" y="2710" width="90" height="70" as="geometry" />
        </mxCell>
        <mxCell id="IaOOJrMQZ6kJ5tzoCsom-225" value="Alterar um pacote de agendamento" style="ellipse;whiteSpace=wrap;html=1;labelBackgroundColor=none;" vertex="1" parent="1">
          <mxGeometry x="510" y="2760" width="90" height="70" as="geometry" />
        </mxCell>
        <mxCell id="IaOOJrMQZ6kJ5tzoCsom-226" value="Visualizar um pacote de agendamento" style="ellipse;whiteSpace=wrap;html=1;labelBackgroundColor=none;" vertex="1" parent="1">
          <mxGeometry x="480" y="2535" width="90" height="70" as="geometry" />
        </mxCell>
        <mxCell id="IaOOJrMQZ6kJ5tzoCsom-233" style="edgeStyle=orthogonalEdgeStyle;rounded=0;orthogonalLoop=1;jettySize=auto;html=1;exitX=1;exitY=0.5;exitDx=0;exitDy=0;entryX=0;entryY=0.5;entryDx=0;entryDy=0;" edge="1" parent="1" source="IaOOJrMQZ6kJ5tzoCsom-227" target="IaOOJrMQZ6kJ5tzoCsom-228">
          <mxGeometry relative="1" as="geometry" />
        </mxCell>
        <mxCell id="IaOOJrMQZ6kJ5tzoCsom-227" value="Registrar incidente" style="ellipse;whiteSpace=wrap;html=1;labelBackgroundColor=none;" vertex="1" parent="1">
          <mxGeometry x="430" y="2630" width="90" height="70" as="geometry" />
        </mxCell>
        <mxCell id="IaOOJrMQZ6kJ5tzoCsom-228" value="Visualizar incidentes" style="ellipse;whiteSpace=wrap;html=1;labelBackgroundColor=none;" vertex="1" parent="1">
          <mxGeometry x="580" y="2630" width="90" height="70" as="geometry" />
        </mxCell>
        <mxCell id="IaOOJrMQZ6kJ5tzoCsom-237" style="edgeStyle=orthogonalEdgeStyle;rounded=0;orthogonalLoop=1;jettySize=auto;html=1;exitX=1;exitY=0.5;exitDx=0;exitDy=0;entryX=0;entryY=0.5;entryDx=0;entryDy=0;" edge="1" parent="1" source="IaOOJrMQZ6kJ5tzoCsom-234" target="IaOOJrMQZ6kJ5tzoCsom-235">
          <mxGeometry relative="1" as="geometry" />
        </mxCell>
        <mxCell id="IaOOJrMQZ6kJ5tzoCsom-239" style="edgeStyle=orthogonalEdgeStyle;rounded=0;orthogonalLoop=1;jettySize=auto;html=1;exitX=1;exitY=0.5;exitDx=0;exitDy=0;entryX=0;entryY=0.5;entryDx=0;entryDy=0;" edge="1" parent="1" source="IaOOJrMQZ6kJ5tzoCsom-234" target="IaOOJrMQZ6kJ5tzoCsom-236">
          <mxGeometry relative="1" as="geometry" />
        </mxCell>
        <mxCell id="IaOOJrMQZ6kJ5tzoCsom-241" style="edgeStyle=orthogonalEdgeStyle;rounded=0;orthogonalLoop=1;jettySize=auto;html=1;exitX=1;exitY=0.5;exitDx=0;exitDy=0;entryX=0;entryY=0.5;entryDx=0;entryDy=0;" edge="1" parent="1" source="IaOOJrMQZ6kJ5tzoCsom-234" target="IaOOJrMQZ6kJ5tzoCsom-240">
          <mxGeometry relative="1" as="geometry" />
        </mxCell>
        <mxCell id="IaOOJrMQZ6kJ5tzoCsom-234" value="Acesso as Informações" style="ellipse;whiteSpace=wrap;html=1;labelBackgroundColor=none;" vertex="1" parent="1">
          <mxGeometry x="-720" y="2910" width="90" height="70" as="geometry" />
        </mxCell>
        <mxCell id="IaOOJrMQZ6kJ5tzoCsom-243" style="edgeStyle=orthogonalEdgeStyle;rounded=0;orthogonalLoop=1;jettySize=auto;html=1;exitX=1;exitY=0.5;exitDx=0;exitDy=0;entryX=0;entryY=0.5;entryDx=0;entryDy=0;" edge="1" parent="1" source="IaOOJrMQZ6kJ5tzoCsom-235" target="IaOOJrMQZ6kJ5tzoCsom-242">
          <mxGeometry relative="1" as="geometry" />
        </mxCell>
        <mxCell id="IaOOJrMQZ6kJ5tzoCsom-235" value="Geração do relatorios siimples" style="ellipse;whiteSpace=wrap;html=1;labelBackgroundColor=none;" vertex="1" parent="1">
          <mxGeometry x="-490" y="2910" width="90" height="70" as="geometry" />
        </mxCell>
        <mxCell id="IaOOJrMQZ6kJ5tzoCsom-251" style="edgeStyle=orthogonalEdgeStyle;rounded=0;orthogonalLoop=1;jettySize=auto;html=1;exitX=1;exitY=0.5;exitDx=0;exitDy=0;entryX=0;entryY=0.5;entryDx=0;entryDy=0;" edge="1" parent="1" source="IaOOJrMQZ6kJ5tzoCsom-236" target="IaOOJrMQZ6kJ5tzoCsom-249">
          <mxGeometry relative="1" as="geometry" />
        </mxCell>
        <mxCell id="IaOOJrMQZ6kJ5tzoCsom-252" style="edgeStyle=orthogonalEdgeStyle;rounded=0;orthogonalLoop=1;jettySize=auto;html=1;exitX=1;exitY=0.5;exitDx=0;exitDy=0;entryX=0;entryY=0.5;entryDx=0;entryDy=0;" edge="1" parent="1" source="IaOOJrMQZ6kJ5tzoCsom-236" target="IaOOJrMQZ6kJ5tzoCsom-250">
          <mxGeometry relative="1" as="geometry" />
        </mxCell>
        <mxCell id="IaOOJrMQZ6kJ5tzoCsom-236" value="Geração do relatorios detalhados" style="ellipse;whiteSpace=wrap;html=1;labelBackgroundColor=none;" vertex="1" parent="1">
          <mxGeometry x="-510" y="3020" width="90" height="70" as="geometry" />
        </mxCell>
        <mxCell id="IaOOJrMQZ6kJ5tzoCsom-240" value="Gerar PDF dos serviços prestados" style="ellipse;whiteSpace=wrap;html=1;labelBackgroundColor=none;" vertex="1" parent="1">
          <mxGeometry x="-510" y="2800" width="90" height="70" as="geometry" />
        </mxCell>
        <mxCell id="IaOOJrMQZ6kJ5tzoCsom-245" style="edgeStyle=orthogonalEdgeStyle;rounded=0;orthogonalLoop=1;jettySize=auto;html=1;exitX=1;exitY=0.5;exitDx=0;exitDy=0;entryX=0;entryY=0.5;entryDx=0;entryDy=0;dashed=1;" edge="1" parent="1" source="IaOOJrMQZ6kJ5tzoCsom-242" target="IaOOJrMQZ6kJ5tzoCsom-244">
          <mxGeometry relative="1" as="geometry" />
        </mxCell>
        <mxCell id="IaOOJrMQZ6kJ5tzoCsom-246" value="&amp;lt;inclui&amp;gt;" style="edgeLabel;html=1;align=center;verticalAlign=middle;resizable=0;points=[];" vertex="1" connectable="0" parent="IaOOJrMQZ6kJ5tzoCsom-245">
          <mxGeometry x="-0.3683" y="-1" relative="1" as="geometry">
            <mxPoint as="offset" />
          </mxGeometry>
        </mxCell>
        <mxCell id="IaOOJrMQZ6kJ5tzoCsom-242" value="Gerar Relatorio simples Financeiro" style="ellipse;whiteSpace=wrap;html=1;labelBackgroundColor=none;" vertex="1" parent="1">
          <mxGeometry x="-329" y="2910" width="90" height="70" as="geometry" />
        </mxCell>
        <mxCell id="IaOOJrMQZ6kJ5tzoCsom-244" value="Gasto com Funcionario" style="ellipse;whiteSpace=wrap;html=1;labelBackgroundColor=none;" vertex="1" parent="1">
          <mxGeometry x="-139" y="2910" width="90" height="70" as="geometry" />
        </mxCell>
        <mxCell id="IaOOJrMQZ6kJ5tzoCsom-249" value="Gerar relatorio do desempenho de funcionario" style="ellipse;whiteSpace=wrap;html=1;labelBackgroundColor=none;" vertex="1" parent="1">
          <mxGeometry x="-271" y="2990" width="90" height="70" as="geometry" />
        </mxCell>
        <mxCell id="IaOOJrMQZ6kJ5tzoCsom-250" value="Gerar relatorio do desempenho do serviço" style="ellipse;whiteSpace=wrap;html=1;labelBackgroundColor=none;" vertex="1" parent="1">
          <mxGeometry x="-271" y="3070" width="90" height="70" as="geometry" />
        </mxCell>
        <mxCell id="IaOOJrMQZ6kJ5tzoCsom-262" value="SGBD" style="shape=umlActor;verticalLabelPosition=bottom;verticalAlign=top;html=1;outlineConnect=0;labelBackgroundColor=none;" vertex="1" parent="1">
          <mxGeometry x="-866" y="2160" width="30" height="60" as="geometry" />
        </mxCell>
        <mxCell id="IaOOJrMQZ6kJ5tzoCsom-264" style="edgeStyle=orthogonalEdgeStyle;rounded=0;orthogonalLoop=1;jettySize=auto;html=1;exitX=0.5;exitY=0;exitDx=0;exitDy=0;dashed=1;" edge="1" parent="1" source="IaOOJrMQZ6kJ5tzoCsom-263" target="IaOOJrMQZ6kJ5tzoCsom-262">
          <mxGeometry relative="1" as="geometry">
            <Array as="points">
              <mxPoint x="-1051" y="2440" />
              <mxPoint x="-1080" y="2440" />
              <mxPoint x="-1080" y="2190" />
            </Array>
          </mxGeometry>
        </mxCell>
        <mxCell id="IaOOJrMQZ6kJ5tzoCsom-267" value="&amp;lt;sistema&amp;gt;" style="edgeLabel;html=1;align=center;verticalAlign=middle;resizable=0;points=[];" vertex="1" connectable="0" parent="IaOOJrMQZ6kJ5tzoCsom-264">
          <mxGeometry x="-0.1876" y="-1" relative="1" as="geometry">
            <mxPoint as="offset" />
          </mxGeometry>
        </mxCell>
        <mxCell id="IaOOJrMQZ6kJ5tzoCsom-263" value="Registra no banco" style="ellipse;whiteSpace=wrap;html=1;labelBackgroundColor=none;dashed=1;" vertex="1" parent="1">
          <mxGeometry x="-1096" y="2460" width="90" height="70" as="geometry" />
        </mxCell>
        <mxCell id="IaOOJrMQZ6kJ5tzoCsom-268" style="edgeStyle=orthogonalEdgeStyle;rounded=0;orthogonalLoop=1;jettySize=auto;html=1;exitX=0.5;exitY=0;exitDx=0;exitDy=0;entryX=0.5;entryY=0.5;entryDx=0;entryDy=0;entryPerimeter=0;dashed=1;" edge="1" parent="1" source="IaOOJrMQZ6kJ5tzoCsom-151" target="IaOOJrMQZ6kJ5tzoCsom-262">
          <mxGeometry relative="1" as="geometry">
            <Array as="points">
              <mxPoint x="-955" y="2430" />
              <mxPoint x="-1040" y="2430" />
              <mxPoint x="-1040" y="2190" />
            </Array>
          </mxGeometry>
        </mxCell>
        <mxCell id="IaOOJrMQZ6kJ5tzoCsom-269" value="&amp;lt;sistema&amp;gt;" style="edgeLabel;html=1;align=center;verticalAlign=middle;resizable=0;points=[];" vertex="1" connectable="0" parent="IaOOJrMQZ6kJ5tzoCsom-268">
          <mxGeometry x="-0.3492" y="-1" relative="1" as="geometry">
            <mxPoint as="offset" />
          </mxGeometry>
        </mxCell>
        <mxCell id="IaOOJrMQZ6kJ5tzoCsom-271" style="edgeStyle=orthogonalEdgeStyle;rounded=0;orthogonalLoop=1;jettySize=auto;html=1;exitX=0.5;exitY=1;exitDx=0;exitDy=0;dashed=1;entryX=0.5;entryY=0.5;entryDx=0;entryDy=0;entryPerimeter=0;" edge="1" parent="1" source="IaOOJrMQZ6kJ5tzoCsom-163" target="IaOOJrMQZ6kJ5tzoCsom-270">
          <mxGeometry relative="1" as="geometry">
            <mxPoint x="-980" y="3260" as="targetPoint" />
          </mxGeometry>
        </mxCell>
        <mxCell id="IaOOJrMQZ6kJ5tzoCsom-272" value="&amp;lt;realiza&amp;gt;" style="edgeLabel;html=1;align=center;verticalAlign=middle;resizable=0;points=[];" vertex="1" connectable="0" parent="IaOOJrMQZ6kJ5tzoCsom-271">
          <mxGeometry x="0.0816" y="3" relative="1" as="geometry">
            <mxPoint x="-3" y="-84" as="offset" />
          </mxGeometry>
        </mxCell>
        <mxCell id="IaOOJrMQZ6kJ5tzoCsom-270" value="SGBD" style="shape=umlActor;verticalLabelPosition=bottom;verticalAlign=top;html=1;outlineConnect=0;labelBackgroundColor=none;" vertex="1" parent="1">
          <mxGeometry x="-926" y="3340" width="30" height="60" as="geometry" />
        </mxCell>
        <mxCell id="IaOOJrMQZ6kJ5tzoCsom-274" value="Cotas de serviços automaticas" style="ellipse;whiteSpace=wrap;html=1;labelBackgroundColor=none;dashed=1;" vertex="1" parent="1">
          <mxGeometry x="-896" y="3180" width="96" height="80" as="geometry" />
        </mxCell>
        <mxCell id="IaOOJrMQZ6kJ5tzoCsom-276" style="edgeStyle=orthogonalEdgeStyle;rounded=0;orthogonalLoop=1;jettySize=auto;html=1;exitX=0.5;exitY=1;exitDx=0;exitDy=0;entryX=0.5;entryY=0.5;entryDx=0;entryDy=0;entryPerimeter=0;dashed=1;" edge="1" parent="1" source="IaOOJrMQZ6kJ5tzoCsom-274" target="IaOOJrMQZ6kJ5tzoCsom-270">
          <mxGeometry relative="1" as="geometry">
            <Array as="points">
              <mxPoint x="-850" y="3250" />
              <mxPoint x="-850" y="3370" />
            </Array>
          </mxGeometry>
        </mxCell>
        <mxCell id="IaOOJrMQZ6kJ5tzoCsom-278" value="&amp;lt;Sistema_registra&amp;gt;" style="edgeLabel;html=1;align=center;verticalAlign=middle;resizable=0;points=[];" vertex="1" connectable="0" parent="IaOOJrMQZ6kJ5tzoCsom-276">
          <mxGeometry x="-0.4763" y="1" relative="1" as="geometry">
            <mxPoint x="-1" y="-3" as="offset" />
          </mxGeometry>
        </mxCell>
        <mxCell id="IaOOJrMQZ6kJ5tzoCsom-279" value="Cotas de relatorios automaticas" style="ellipse;whiteSpace=wrap;html=1;labelBackgroundColor=none;dashed=1;" vertex="1" parent="1">
          <mxGeometry x="-790" y="3180" width="100" height="80" as="geometry" />
        </mxCell>
        <mxCell id="IaOOJrMQZ6kJ5tzoCsom-281" value="&amp;lt;Sistema_verifica&amp;gt;" style="edgeLabel;html=1;align=center;verticalAlign=middle;resizable=0;points=[];" vertex="1" connectable="0" parent="1">
          <mxGeometry x="-744.996086956521" y="3160.0000000000005" as="geometry" />
        </mxCell>
        <mxCell id="IaOOJrMQZ6kJ5tzoCsom-282" style="edgeStyle=orthogonalEdgeStyle;rounded=0;orthogonalLoop=1;jettySize=auto;html=1;exitX=0.5;exitY=1;exitDx=0;exitDy=0;entryX=0.5;entryY=0.5;entryDx=0;entryDy=0;entryPerimeter=0;dashed=1;" edge="1" parent="1" source="IaOOJrMQZ6kJ5tzoCsom-279" target="IaOOJrMQZ6kJ5tzoCsom-270">
          <mxGeometry relative="1" as="geometry">
            <Array as="points">
              <mxPoint x="-745" y="3370" />
            </Array>
          </mxGeometry>
        </mxCell>
        <mxCell id="IaOOJrMQZ6kJ5tzoCsom-283" value="&amp;lt;Sistema_registra&amp;gt;" style="edgeLabel;html=1;align=center;verticalAlign=middle;resizable=0;points=[];" vertex="1" connectable="0" parent="1">
          <mxGeometry x="-744.99652173913" y="3290.0026086956527" as="geometry" />
        </mxCell>
        <mxCell id="IaOOJrMQZ6kJ5tzoCsom-285" value="" style="ellipse;whiteSpace=wrap;html=1;aspect=fixed;fillColor=#d5e8d4;strokeColor=#82b366;opacity=30;" vertex="1" parent="1">
          <mxGeometry x="-1015" y="1540" width="160" height="160" as="geometry" />
        </mxCell>
        <mxCell id="IaOOJrMQZ6kJ5tzoCsom-286" value="" style="ellipse;whiteSpace=wrap;html=1;aspect=fixed;fillColor=#f8cecc;strokeColor=#b85450;opacity=30;" vertex="1" parent="1">
          <mxGeometry x="-965" y="1630" width="160" height="160" as="geometry" />
        </mxCell>
        <mxCell id="IaOOJrMQZ6kJ5tzoCsom-287" value="" style="ellipse;whiteSpace=wrap;html=1;aspect=fixed;fillColor=#e1d5e7;strokeColor=#9673a6;shadow=1;opacity=30;" vertex="1" parent="1">
          <mxGeometry x="-915" y="1540" width="160" height="160" as="geometry" />
        </mxCell>
        <mxCell id="IaOOJrMQZ6kJ5tzoCsom-294" value="&amp;lt;Sistema_Registra&amp;gt;" style="edgeLabel;html=1;align=center;verticalAlign=middle;resizable=0;points=[];" vertex="1" connectable="0" parent="1">
          <mxGeometry x="-666" y="2240.003870967742" as="geometry" />
        </mxCell>
        <mxCell id="IaOOJrMQZ6kJ5tzoCsom-295" value="&amp;lt;Sistema_verifica&amp;gt;" style="edgeLabel;html=1;align=center;verticalAlign=middle;resizable=0;points=[];" vertex="1" connectable="0" parent="1">
          <mxGeometry x="-913.2727272727288" y="2279.9999999999995" as="geometry" />
        </mxCell>
        <mxCell id="IaOOJrMQZ6kJ5tzoCsom-304" style="edgeStyle=orthogonalEdgeStyle;rounded=0;orthogonalLoop=1;jettySize=auto;html=1;exitX=0.5;exitY=0;exitDx=0;exitDy=0;dashed=1;" edge="1" parent="1" source="IaOOJrMQZ6kJ5tzoCsom-296">
          <mxGeometry relative="1" as="geometry">
            <mxPoint x="-850" y="2220" as="targetPoint" />
          </mxGeometry>
        </mxCell>
        <mxCell id="IaOOJrMQZ6kJ5tzoCsom-296" value="Cotas de serviços automaticas" style="ellipse;whiteSpace=wrap;html=1;labelBackgroundColor=none;dashed=1;" vertex="1" parent="1">
          <mxGeometry x="-961" y="2300" width="96" height="80" as="geometry" />
        </mxCell>
        <mxCell id="IaOOJrMQZ6kJ5tzoCsom-297" value="&amp;lt;Sistema_registra&amp;gt;" style="edgeLabel;html=1;align=center;verticalAlign=middle;resizable=0;points=[];" vertex="1" connectable="0" parent="1">
          <mxGeometry x="-915" y="2405.90909090909" as="geometry" />
        </mxCell>
        <mxCell id="IaOOJrMQZ6kJ5tzoCsom-303" style="edgeStyle=orthogonalEdgeStyle;rounded=0;orthogonalLoop=1;jettySize=auto;html=1;exitX=0.5;exitY=0;exitDx=0;exitDy=0;dashed=1;" edge="1" parent="1" source="IaOOJrMQZ6kJ5tzoCsom-298" target="IaOOJrMQZ6kJ5tzoCsom-262">
          <mxGeometry relative="1" as="geometry" />
        </mxCell>
        <mxCell id="IaOOJrMQZ6kJ5tzoCsom-298" value="Cotas de relatorios automaticas" style="ellipse;whiteSpace=wrap;html=1;labelBackgroundColor=none;dashed=1;" vertex="1" parent="1">
          <mxGeometry x="-855" y="2300" width="100" height="80" as="geometry" />
        </mxCell>
        <mxCell id="IaOOJrMQZ6kJ5tzoCsom-299" value="&amp;lt;Sistema_verifica&amp;gt;" style="edgeLabel;html=1;align=center;verticalAlign=middle;resizable=0;points=[];" vertex="1" connectable="0" parent="1">
          <mxGeometry x="-809.996086956521" y="2280.0000000000005" as="geometry" />
        </mxCell>
        <mxCell id="IaOOJrMQZ6kJ5tzoCsom-300" value="&amp;lt;Sistema_registra&amp;gt;" style="edgeLabel;html=1;align=center;verticalAlign=middle;resizable=0;points=[];" vertex="1" connectable="0" parent="1">
          <mxGeometry x="-808.99652173913" y="2405.9126086956526" as="geometry" />
        </mxCell>
        <mxCell id="IaOOJrMQZ6kJ5tzoCsom-301" style="edgeStyle=orthogonalEdgeStyle;rounded=0;orthogonalLoop=1;jettySize=auto;html=1;exitX=0.5;exitY=0;exitDx=0;exitDy=0;entryX=0.434;entryY=1.02;entryDx=0;entryDy=0;entryPerimeter=0;dashed=1;" edge="1" parent="1" source="IaOOJrMQZ6kJ5tzoCsom-142" target="IaOOJrMQZ6kJ5tzoCsom-298">
          <mxGeometry relative="1" as="geometry" />
        </mxCell>
        <mxCell id="IaOOJrMQZ6kJ5tzoCsom-305" value="SGBD" style="shape=umlActor;verticalLabelPosition=bottom;verticalAlign=top;html=1;outlineConnect=0;labelBackgroundColor=none;" vertex="1" parent="1">
          <mxGeometry x="-330" y="2100" width="30" height="60" as="geometry" />
        </mxCell>
      </root>
    </mxGraphModel>
  </diagram>
</mxfile>
